<svg width="351" height="323" viewBox="0 0 351 323" fill="none" xmlns="http://www.w3.org/2000/svg">
<path d="M52.7189 176.14C52.7189 175.164 52.8409 174.189 52.8409 173.214L30.7728 151.146C29.4317 159.193 28.4563 167.484 28.4563 176.018C28.4563 184.552 29.3097 192.843 30.7728 200.889L52.8409 178.822C52.8409 177.969 52.7189 177.115 52.7189 176.14Z" fill="#DBAF4F"/>
<path d="M264.133 260.75C241.822 284.158 210.365 298.91 175.495 298.91C140.625 298.91 109.169 284.28 86.8574 260.75H55.6451C82.2244 298.301 125.995 322.928 175.495 322.928C224.996 322.928 268.766 298.301 295.346 260.75H264.133Z" fill="#DBAF4F"/>
<path d="M86.9793 91.4063C88.1986 90.0652 89.5397 88.8461 90.759 87.6269V56.1719C77.1036 65.8034 65.1551 77.7515 55.5232 91.4063H86.9793Z" fill="#DBAF4F"/>
<path d="M172.813 53.6111C173.666 53.6111 174.642 53.4892 175.495 53.4892C243.163 53.4892 298.15 108.474 298.15 176.139C298.15 176.993 298.028 177.968 298.028 178.821L320.096 200.889C321.437 192.842 322.412 184.552 322.412 176.017C322.412 94.9415 256.696 29.1055 175.495 29.1055C166.961 29.1055 158.67 29.9589 150.623 31.4219L172.813 53.6111Z" fill="#DBAF4F"/>
<path d="M102.829 0.820312V69.3386L233.897 200.279H48.5736L0.292114 248.681H350.699L102.829 0.820312Z" fill="#DBAF4F"/>
<path d="M175.495 176.14L102.829 103.477H0.292114L72.8363 176.14H175.495Z" fill="#DBAF4F"/>
</svg>
