<svg width="168" height="168" viewBox="0 0 168 168" fill="none" xmlns="http://www.w3.org/2000/svg">
<g id="atlants" clip-path="url(#clip0_1501_77756)">
<g id="Group">
<g id="Group_2">
<path id="Vector" d="M24.7415 143.322L52.717 131.787L84.0345 56.11L115.406 131.787L143.328 143.322L84.0345 0.214844L24.7415 143.322Z" fill="white"/>
<path id="Vector_2" d="M84.0344 84.0312L66.6777 125.966L84.0344 167.901L101.445 125.966L84.0344 84.0312Z" fill="white"/>
<path id="Vector_3" d="M62.2039 133.621L49.429 138.903C55.5739 142.784 62.4196 145.695 69.7503 147.366L64.4139 134.537C63.7132 134.268 62.9586 133.944 62.2039 133.621Z" fill="white"/>
<path id="Vector_4" d="M34.4978 105.914C31.5331 99.2304 29.8621 91.846 29.8621 84.0843C29.8621 61.1225 44.2542 41.4487 64.4677 33.5792L69.7502 20.8047C40.7505 27.3267 19.1355 53.1452 19.1355 84.0843C19.1355 96.8049 22.8548 108.663 29.2153 118.689L34.4978 105.914Z" fill="white"/>
<path id="Vector_5" d="M138.368 84.0296C138.368 91.8452 136.697 99.2296 133.679 105.967L138.961 118.688C145.322 108.662 149.041 96.8041 149.041 84.0296C149.041 53.0905 127.372 27.2181 98.3726 20.75L103.655 33.4706C123.922 41.394 138.368 61.0139 138.368 84.0296Z" fill="white"/>
<path id="Vector_6" d="M103.655 134.591L98.3726 147.366C105.703 145.695 112.549 142.838 118.694 138.903L105.973 133.621C105.218 133.998 104.41 134.268 103.655 134.591Z" fill="white"/>
</g>
</g>
</g>
<defs>
<clipPath id="clip0_1501_77756">
<rect width="168" height="168" fill="white"/>
</clipPath>
</defs>
</svg>
