<svg width="16" height="16" viewBox="0 0 16 16" fill="none" xmlns="http://www.w3.org/2000/svg">
<g id="Group 5">
<path id="path2430" d="M6.5455 15.8014L6.3145 15.6031L6.00256 15.5771C5.61303 15.5447 5.43146 15.5087 5.21166 15.4204L5.03895 15.3509L4.85481 15.4252C4.69723 15.4888 4.31158 15.5472 4.01921 15.5519C4.00343 15.5522 3.97634 15.5145 3.95901 15.4682C3.94168 15.4219 3.90803 15.3765 3.88423 15.3673C3.86043 15.3581 3.68366 15.3984 3.4914 15.4568L3.14184 15.563L3.0164 15.5015C2.8575 15.4237 2.78958 15.4244 2.52435 15.5069C2.32271 15.5696 2.29857 15.5714 2.13455 15.536C1.89387 15.4839 1.69087 15.4877 1.2366 15.5528C0.73991 15.6239 0.730222 15.6234 0.584263 15.5237C0.486232 15.4568 0.432076 15.44 0.313327 15.44C0.178235 15.44 0.163344 15.4338 0.14744 15.3698C0.137392 15.3295 0.149614 15.2501 0.176197 15.1831C0.249989 14.9972 0.279599 14.543 0.288475 13.4608L0.296767 12.4502L0.435983 12.4595L0.5752 12.4689L0.596356 11.884C0.607992 11.5624 0.618803 11.0992 0.620384 10.8548L0.623251 10.4104L0.548841 10.3557C0.345022 10.206 0.354878 10.2278 0.270227 9.73867C0.226366 9.48524 0.182726 9.11327 0.173248 8.91207C0.156405 8.55451 0.15752 8.54452 0.222578 8.46959L0.289138 8.39293L0.455152 8.53677C0.54646 8.61588 0.625651 8.66705 0.631133 8.65047C0.656015 8.5752 0.581911 7.66825 0.541613 7.55485C0.517604 7.48729 0.497958 7.39439 0.497958 7.3484C0.497958 7.30242 0.452446 7.17747 0.396819 7.07073L0.295679 6.87667L0.329357 6.53132C0.373915 6.0744 0.317535 5.73865 0.128228 5.33355L0.0429548 5.15107L0.0970814 4.69852L0.151208 4.24598L0.0927081 4.01072L0.0342084 3.77546L0.102508 3.51279L0.170807 3.25013L0.0928616 2.99392L0.0149162 2.73772L0.110263 2.47053C0.203742 2.20857 0.205579 2.19481 0.204032 1.76819C0.202299 1.28817 0.151128 0.975881 0.0537843 0.851103C-0.0310076 0.742414 -0.0174759 0.667577 0.108161 0.550369C0.169415 0.493225 0.219531 0.421714 0.219531 0.391455C0.219531 0.344082 0.239837 0.336134 0.365706 0.334239C0.446101 0.333033 0.693554 0.310923 0.915599 0.28511L1.31932 0.238182L1.84833 0.31584C2.37673 0.393409 2.37817 0.393463 3.10192 0.362388L3.8265 0.331277L3.99854 0.434609L4.17057 0.537941L4.87491 0.527475L5.57925 0.51701L5.81592 0.430658C5.94608 0.383165 6.15281 0.29884 6.27532 0.243269C6.39783 0.187699 6.61739 0.11023 6.76324 0.071116L7.02841 0L7.37082 0.109361L7.71323 0.218721L8.00898 0.118863L8.30473 0.0190059L8.62258 0.124485C8.7974 0.182499 9.12372 0.325003 9.34775 0.441161L9.75508 0.652357L10.1825 0.639259C10.5055 0.629362 10.6158 0.616666 10.6338 0.587333C10.6469 0.56598 10.6864 0.442509 10.7217 0.312955L10.7858 0.077402L11.1896 0.0911675C11.4909 0.101442 11.7614 0.134628 12.256 0.222016L12.9188 0.339098L13.0913 0.269705C13.1862 0.231539 13.365 0.186429 13.4886 0.169461C13.6982 0.140688 13.7339 0.143854 14.0176 0.21647C14.2841 0.284656 14.3738 0.294269 14.7395 0.293844C14.9692 0.293577 15.2086 0.284236 15.2716 0.273085C15.3802 0.253843 15.3979 0.26145 15.6188 0.422302C15.7468 0.515522 15.8607 0.60665 15.8718 0.624808C15.8829 0.642967 15.9061 0.741567 15.9232 0.843919L15.9543 1.03001L15.8133 1.29616C15.7357 1.44255 15.6722 1.57503 15.6722 1.59056C15.6722 1.6061 15.7031 1.63297 15.7407 1.65027C15.7784 1.66757 15.843 1.73319 15.8843 1.79608L15.9593 1.91043L15.941 3.44653C15.931 4.29138 15.9147 5.04438 15.9048 5.11986L15.8869 5.25709L15.6572 5.24074L15.4275 5.2244L15.4087 5.35106C15.3983 5.42072 15.3899 5.54898 15.3899 5.63609C15.3899 5.76511 15.3699 5.83334 15.2821 6.00419L15.1744 6.21391L15.234 6.30011C15.2668 6.34752 15.3808 6.47777 15.4874 6.58956L15.6811 6.79283L15.6224 7.01067L15.5637 7.22851L15.6335 7.69173C15.7172 8.24697 15.7102 8.38735 15.5752 8.86935C15.5214 9.06155 15.4774 9.24056 15.4774 9.26717C15.4774 9.31719 15.5149 9.32997 15.7627 9.36423C15.8734 9.37954 15.8951 9.3923 15.8953 9.4425C15.8955 9.47549 15.9136 10.1847 15.9356 11.0185C16.0077 13.7578 16.0143 14.3557 15.9798 14.9763C15.9618 15.3003 15.9423 15.5701 15.9366 15.5759C15.9307 15.5818 15.7092 15.4927 15.4442 15.378L14.9623 15.1695L14.754 15.2608C14.5401 15.3546 14.5187 15.3787 14.4897 15.5586C14.4704 15.6778 14.4844 15.672 13.9559 15.781L13.6455 15.845L13.3433 15.7427C13.0631 15.6479 13.0239 15.6416 12.8045 15.6558C12.6388 15.6665 12.5262 15.6588 12.4292 15.63C12.2906 15.5889 12.2904 15.589 12.057 15.6972L11.8236 15.8054L10.9567 15.8046C10.0437 15.8038 9.85602 15.818 9.22667 15.9352C8.79251 16.0161 8.63987 16.0144 7.87893 15.9207L7.47785 15.8713L7.19679 15.9358C7.0422 15.9713 6.8844 16.0002 6.84611 16C6.80052 15.9998 6.69679 15.9313 6.5455 15.8014ZM4.85637 13.3212C5.52626 13.0669 6.07832 12.8547 6.08319 12.8498C6.09189 12.841 3.4711 10.2778 3.12354 9.95514C3.02581 9.86441 2.94016 9.79593 2.93319 9.80295C2.92623 9.80997 2.71321 10.3832 2.45983 11.0768C2.18073 11.8408 2.00782 12.3521 2.02118 12.3739C2.03803 12.4013 3.61556 13.7793 3.63434 13.7829C3.63658 13.7834 4.18649 13.5756 4.85637 13.3212ZM13.8637 11.9168C14.2119 11.0676 14.4888 10.3646 14.4789 10.3546C14.4654 10.3408 7.92647 5.88797 3.34705 2.77408L2.9803 2.5247L2.37901 2.79762C2.04829 2.94773 1.7821 3.08382 1.78746 3.10004C1.79283 3.11627 4.0076 5.45657 6.70917 8.30071L11.6211 13.4719L12.4259 13.4663L13.2306 13.4608L13.8637 11.9168ZM12.9564 4.61934C13.0719 3.97308 13.1664 3.4228 13.1664 3.3965C13.1664 3.36659 12.9975 3.22878 12.7156 3.02867C12.4677 2.85266 12.2488 2.69878 12.2292 2.6867C12.1936 2.66473 9.62875 3.3639 9.63209 3.39467C9.63433 3.41523 12.7279 5.8131 12.7385 5.80245C12.7429 5.79799 12.841 5.2656 12.9564 4.61934Z" fill="#972F1B"/>
</g>
</svg>
