<svg width="144" height="24" viewBox="0 0 144 24" fill="none" xmlns="http://www.w3.org/2000/svg">
<g id="Sberbank_Logo_2020 (1) 1">
<g id="surface1">
<path id="Vector" d="M64.3876 6.9613L67.3882 4.71875H57.3396V18.1536H67.3882V15.9091H60.2098V12.4801H66.3452V10.2376H60.2098V6.9613H64.3876Z" fill="#21A038"/>
<path id="Vector_2" d="M49.7476 9.95075H46.2665V6.9613H51.8356L54.8381 4.71875H43.3962V18.1536H49.377C52.7278 18.1536 54.663 16.6132 54.663 13.9311C54.663 11.3589 52.9234 9.95075 49.7476 9.95075ZM49.269 15.9091H46.2665V12.1933H49.269C51.0962 12.1933 51.9436 12.8098 51.9436 14.0633C51.9436 15.3168 51.031 15.9091 49.269 15.9091Z" fill="#21A038"/>
<path id="Vector_3" d="M75.5239 4.71875H70.0647V18.1536H72.9349V14.3483H75.5463C79.0256 14.3483 81.2011 12.5025 81.2011 9.53353C81.2011 6.56457 79.0256 4.71875 75.5239 4.71875ZM75.4587 12.1058H72.9144V6.9613H75.4587C77.3083 6.9613 78.3085 7.88514 78.3085 9.53353C78.3085 11.1819 77.3083 12.1058 75.4587 12.1058Z" fill="#21A038"/>
<path id="Vector_4" d="M38.4791 15.251C37.7191 15.67 36.8698 15.8898 36 15.8898C33.411 15.8898 31.541 14.0198 31.541 11.4476C31.541 8.87534 33.411 7.0053 36 7.0053C36.935 6.98482 37.8495 7.29214 38.6095 7.8416L40.6769 6.30311L40.5465 6.17087C39.3508 5.09243 37.7396 4.54297 35.9124 4.54297C33.9344 4.54297 32.1277 5.22467 30.8239 6.45584C29.5182 7.73171 28.7787 9.51234 28.8216 11.36C28.7992 13.2282 29.5182 15.0312 30.8239 16.3499C32.1929 17.6481 34.0201 18.3745 35.892 18.3298C37.9576 18.3298 39.7624 17.6034 40.9805 16.2847L39.1328 14.8989L38.4791 15.251Z" fill="#21A038"/>
<path id="Vector_5" d="M115.722 4.7411V18.174H118.593V12.6776H124.706V18.174H127.578V4.7411H124.706V10.2599H118.593V4.7411H115.722ZM110.785 18.174H113.808L108.196 4.7411H105.281L99.5607 18.174H102.453L103.606 15.4696H109.697L110.785 18.174ZM104.476 13.227L106.694 7.84044L108.782 13.227H104.476ZM134.017 12.7446H135.799L140.193 18.1536H143.89L138.017 11.2043L143.151 4.71875H139.867L135.604 10.4797H134.017V4.71875H131.145V18.1536H134.017V12.7446ZM90.0764 9.9731V6.98365H97.5808V4.7411H87.2043V18.174H93.187C96.5359 18.174 98.473 16.6356 98.473 13.9534C98.473 11.3812 96.7333 9.9731 93.5558 9.9731H90.0764ZM90.0764 15.9315V12.2156H93.0789C94.9043 12.2156 95.7536 12.8322 95.7536 14.0857C95.7536 15.3392 94.8614 15.9538 93.0789 15.9538H90.0764V15.9315Z" fill="#21A038"/>
<path id="Vector_6" d="M19.8384 4.63281C20.3599 5.31452 20.7957 6.06141 21.1645 6.85301L11.1159 14.3499L6.89526 11.6678V8.45856L11.0935 11.1183L19.8384 4.63281Z" fill="#21A038"/>
<path id="Vector_7" d="M2.60947 11.4468C2.60947 11.2922 2.60947 11.1618 2.63182 11.0072L0.0875365 10.875C0.0875365 11.0519 0.0651855 11.2494 0.0651855 11.4245C0.0651855 14.5033 1.30567 17.2953 3.30608 19.3181L5.11092 17.4928C3.56684 15.9543 2.60947 13.8216 2.60947 11.4468Z" fill="url(#paint0_linear_1539_43689)"/>
<path id="Vector_8" d="M11.0936 2.87301C11.2463 2.87301 11.3767 2.87301 11.5295 2.89536L11.6598 0.323132C11.4848 0.323132 11.2892 0.300781 11.116 0.300781C8.07064 0.300781 5.30843 1.5543 3.30615 3.57706L5.111 5.4024C6.63459 3.84155 8.76538 2.87301 11.0936 2.87301Z" fill="url(#paint1_linear_1539_43689)"/>
<path id="Vector_9" d="M11.0936 20.0216C10.9408 20.0216 10.8105 20.0216 10.6577 19.9992L10.5273 22.5715C10.7024 22.5715 10.898 22.5938 11.0712 22.5938C14.1165 22.5938 16.8806 21.3403 18.881 19.3175L17.0762 17.4922C15.5526 19.0754 13.4423 20.0216 11.0936 20.0216Z" fill="url(#paint2_linear_1539_43689)"/>
<path id="Vector_10" d="M15.8785 4.36758L18.0316 2.76203C16.1392 1.22354 13.7253 0.277344 11.0935 0.277344V2.84957C12.8779 2.87192 14.53 3.42138 15.8785 4.36758Z" fill="url(#paint3_linear_1539_43689)"/>
<path id="Vector_11" d="M22.1442 11.4457C22.1442 10.764 22.079 10.1047 21.9691 9.44531L19.598 11.2259C19.598 11.2911 19.598 11.3805 19.598 11.4457C19.598 13.9751 18.5103 16.24 16.793 17.8009L18.5103 19.7137C20.7305 17.691 22.1442 14.722 22.1442 11.4457Z" fill="#21A038"/>
<path id="Vector_12" d="M11.0936 20.0242C8.59219 20.0242 6.3515 18.9253 4.80742 17.1875L2.91504 18.9253C4.9378 21.1902 7.85275 22.5964 11.0936 22.5964V20.0242Z" fill="url(#paint4_linear_1539_43689)"/>
<path id="Vector_13" d="M5.41639 5.09256L3.69722 3.17969C1.45653 5.2248 0.0651855 8.17141 0.0651855 11.4477H2.60947C2.60947 8.94066 3.69722 6.65527 5.41639 5.09256Z" fill="url(#paint5_linear_1539_43689)"/>
</g>
</g>
<defs>
<linearGradient id="paint0_linear_1539_43689" x1="3.03476" y1="19.0053" x2="0.421673" y2="11.4178" gradientUnits="userSpaceOnUse">
<stop offset="0.1444" stop-color="#F2E913"/>
<stop offset="0.3037" stop-color="#E7E518"/>
<stop offset="0.5823" stop-color="#CADB26"/>
<stop offset="0.891" stop-color="#A3CD39"/>
</linearGradient>
<linearGradient id="paint1_linear_1539_43689" x1="4.03187" y1="3.28669" x2="10.6342" y2="0.759242" gradientUnits="userSpaceOnUse">
<stop offset="0.0592" stop-color="#0FA8E0"/>
<stop offset="0.5385" stop-color="#0099F9"/>
<stop offset="0.9234" stop-color="#0291EB"/>
</linearGradient>
<linearGradient id="paint2_linear_1539_43689" x1="10.3787" y1="20.4061" x2="18.2458" y2="18.62" gradientUnits="userSpaceOnUse">
<stop offset="0.1226" stop-color="#A3CD39"/>
<stop offset="0.2846" stop-color="#86C339"/>
<stop offset="0.8693" stop-color="#21A038"/>
</linearGradient>
<linearGradient id="paint3_linear_1539_43689" x1="10.5707" y1="1.9163" x2="17.1133" y2="3.94414" gradientUnits="userSpaceOnUse">
<stop offset="0.0566" stop-color="#0291EB"/>
<stop offset="0.79" stop-color="#0C8ACB"/>
</linearGradient>
<linearGradient id="paint4_linear_1539_43689" x1="3.56201" y1="19.3322" x2="10.591" y2="21.9705" gradientUnits="userSpaceOnUse">
<stop offset="0.1324" stop-color="#F2E913"/>
<stop offset="0.2977" stop-color="#EBE716"/>
<stop offset="0.5306" stop-color="#D9E01F"/>
<stop offset="0.8023" stop-color="#BBD62D"/>
<stop offset="0.9829" stop-color="#A3CD39"/>
</linearGradient>
<linearGradient id="paint5_linear_1539_43689" x1="2.0153" y1="11.7585" x2="4.83991" y2="4.37735" gradientUnits="userSpaceOnUse">
<stop offset="0.0698" stop-color="#A3CD39"/>
<stop offset="0.2599" stop-color="#81C55F"/>
<stop offset="0.9216" stop-color="#0FA8E0"/>
</linearGradient>
</defs>
</svg>
