<svg width="148" height="24" viewBox="0 0 148 24" fill="none" xmlns="http://www.w3.org/2000/svg">
<g clip-path="url(#clip0_1539_43671)">
<path d="M14.2983 11.9577L10.9761 6.42254L7.10677 0H0.462402L7.65396 11.9577L0.462402 23.9578H7.10677L14.2983 11.9577Z" fill="#FF0000"/>
<path d="M30.4791 8.36619C30.4791 6.12676 29.6584 4.01408 28.2122 2.4507C26.7661 0.887319 24.7728 0 22.7404 0H10.546L14.1418 6.00001H22.1932C22.7795 6.00001 23.3267 6.25351 23.7566 6.7183C24.1865 7.18308 24.421 7.77463 24.421 8.40844V15.5915C24.421 16.2253 24.1865 16.8169 23.7566 17.2817C23.3267 17.7465 22.7795 18 22.1932 18H14.1418L10.546 24H22.7404C24.8119 24 26.7661 23.1127 28.2122 21.5493C29.6584 19.9859 30.4791 17.831 30.4791 15.6338V8.36619Z" fill="black"/>
<path d="M86.4485 0H75.6611H69.5639H58.7766V5.95774H69.5639V23.9578H75.6611V5.95774H86.4485V0Z" fill="black"/>
<path d="M147.342 23.9578L136.242 11.9577L133.701 9.21126L125.181 0H117.403L128.503 11.9577L117.403 23.9578H125.181L132.372 16.1831L139.564 23.9578H147.342Z" fill="black"/>
<path d="M147.342 0H139.564L134.053 6.00001L137.923 10.1831L147.342 0Z" fill="black"/>
<path d="M115.253 5.70423V0H95.8669H89.7698V5.70423V9.12675V14.831V18.2535V23.9578H95.8669H115.253V18.2535H95.8669V14.831H114.159V9.12675H95.8669V5.70423H115.253Z" fill="black"/>
<path d="M55.5318 23.9578H62.1762L49.9818 0H43.3374L31.1431 23.9578H37.7874L39.9371 19.7746H53.4212L55.5318 23.9578ZM42.8293 14.0704L46.6596 6.50703L50.4899 14.0704H42.8293Z" fill="black"/>
</g>
<defs>
<clipPath id="clip0_1539_43671">
<rect width="148" height="24" fill="white"/>
</clipPath>
</defs>
</svg>
