<svg width="238" height="72" viewBox="0 0 238 72" fill="none" xmlns="http://www.w3.org/2000/svg">
<g id="logo">
<g id="Group 387">
<path id="Vector" d="M50.2073 43.1292L59.56 27.1671C59.7247 26.8867 59.9597 26.6542 60.242 26.4927C60.5242 26.3311 60.8437 26.2461 61.1688 26.2461C61.494 26.2461 61.8135 26.3311 62.0958 26.4927C62.3779 26.6542 62.613 26.8867 62.7777 27.1671L72.1305 43.1292C72.2948 43.4105 72.3826 43.73 72.3851 44.0557C72.3876 44.3815 72.3048 44.7022 72.1449 44.9861C71.985 45.2699 71.7536 45.5069 71.4736 45.6735C71.1937 45.8402 70.875 45.9306 70.5493 45.9358H51.8359C51.5101 45.9306 51.1915 45.8402 50.9115 45.6735C50.6315 45.5069 50.4001 45.2699 50.2402 44.9861C50.0803 44.7022 49.9975 44.3815 50.0001 44.0557C50.0026 43.73 50.0904 43.4105 50.2547 43.1292" fill="#FF312C"/>
<path id="Vector_2" d="M80.5977 25.0015C78.5887 24.9674 76.6108 25.5023 74.8929 26.5445C73.175 27.5867 71.7869 29.0937 70.8892 30.8914C70.6578 31.3536 70.5459 31.8664 70.5639 32.383C70.5819 32.8995 70.7291 33.4033 70.992 33.8482L77.7674 45.4146C77.8863 45.6262 78.0522 45.8075 78.2524 45.9446C78.4525 46.0817 78.6815 46.1709 78.9216 46.2053C79.4166 46.2758 79.9159 46.3101 80.4159 46.3081C83.2307 46.306 85.9302 45.1896 87.9243 43.203C89.9183 41.2163 91.0448 38.521 91.0573 35.7062C91.06 32.91 89.966 30.2243 88.0103 28.2257C86.0547 26.2273 83.3934 25.0753 80.5977 25.0174" fill="#FF312C"/>
<path id="Vector_3" d="M107.415 25.3557H92.9705C92.7641 25.3542 92.5614 25.4101 92.3848 25.517C92.2084 25.6239 92.0649 25.7777 91.9707 25.9613C91.8764 26.1449 91.835 26.3511 91.851 26.5569C91.867 26.7627 91.9398 26.9599 92.0613 27.1267C93.8602 29.6267 94.8206 32.6326 94.8047 35.7125C94.8067 38.739 93.8643 41.6908 92.1087 44.1561C91.9884 44.3231 91.9163 44.52 91.9003 44.7253C91.8844 44.9305 91.9251 45.1361 92.0181 45.3197C92.1112 45.5033 92.2529 45.6578 92.4278 45.7663C92.6027 45.8749 92.8042 45.9332 93.01 45.9349H107.446C108.075 45.9349 108.679 45.6851 109.123 45.2403C109.568 44.7955 109.818 44.1922 109.818 43.5632V27.696C109.818 27.067 109.568 26.4636 109.123 26.0188C108.679 25.5741 108.075 25.3242 107.446 25.3242" fill="#FF312C"/>
<path id="Vector_4" d="M130.492 37.9111L127.701 30.614H123.464L120.665 37.9111H119.084V42.884H121.772V40.5755H129.267V42.884H131.97V37.9111H130.492ZM125.796 33.1676L127.591 37.9111H123.685L125.456 33.1676H125.796ZM138.066 30.3926C137.371 30.3589 136.676 30.4707 136.026 30.7207C135.377 30.9707 134.787 31.3535 134.294 31.8446C133.8 32.3357 133.415 32.9242 133.162 33.5727C132.908 34.2211 132.794 34.9151 132.825 35.6105C132.8 36.3044 132.919 36.9958 133.174 37.6415C133.429 38.2873 133.815 38.8734 134.307 39.3633C134.799 39.853 135.386 40.236 136.033 40.4881C136.68 40.7403 137.372 40.8562 138.066 40.8285C138.76 40.8574 139.452 40.7424 140.099 40.4906C140.746 40.2387 141.334 39.8556 141.826 39.3655C142.317 38.8753 142.702 38.2887 142.955 37.6424C143.209 36.9962 143.327 36.3043 143.3 35.6105C143.331 34.9155 143.218 34.2217 142.966 33.5732C142.713 32.9248 142.329 32.336 141.836 31.8449C141.344 31.3537 140.754 30.9708 140.104 30.7207C139.455 30.4707 138.761 30.3589 138.066 30.3926ZM138.066 38.1089C137.745 38.1108 137.427 38.0462 137.132 37.9192C136.837 37.7922 136.572 37.6054 136.353 37.3707C136.133 37.1359 135.966 36.8584 135.859 36.5554C135.752 36.2525 135.71 35.9307 135.734 35.6105C135.709 35.2911 135.752 34.9701 135.859 34.668C135.966 34.3659 136.134 34.0892 136.353 33.8557C136.572 33.6222 136.838 33.437 137.133 33.3117C137.428 33.1864 137.746 33.1239 138.066 33.1282C138.39 33.1184 138.711 33.1767 139.012 33.2994C139.311 33.4222 139.581 33.6067 139.805 33.8408C140.029 34.075 140.201 34.3534 140.31 34.6583C140.419 34.9632 140.462 35.2877 140.438 35.6105C140.455 35.9324 140.406 36.2545 140.295 36.5571C140.184 36.8596 140.011 37.1362 139.789 37.3701C139.568 37.6039 139.3 37.7899 139.004 37.9169C138.708 38.044 138.388 38.1093 138.066 38.1089ZM154.186 30.6298L151.466 34.5828H151.166L148.486 30.6298H145.149V40.5913H147.933V35.1125H148.32L150.613 38.4962H151.949L154.281 35.1125H154.629V40.5913H157.404V30.6298H154.186ZM161.222 37.1996C160.74 37.1996 160.278 37.3912 159.937 37.7322C159.596 38.0733 159.404 38.5358 159.404 39.018C159.403 39.2575 159.449 39.4948 159.541 39.7164C159.631 39.9379 159.765 40.1392 159.934 40.3089C160.103 40.4786 160.304 40.6132 160.525 40.7051C160.746 40.797 160.983 40.8443 161.222 40.8443C161.463 40.8454 161.701 40.7988 161.923 40.7074C162.145 40.616 162.347 40.4815 162.516 40.3117C162.686 40.1419 162.821 39.9402 162.912 39.7182C163.003 39.4961 163.05 39.2582 163.049 39.018C163.049 38.7786 163.002 38.5415 162.91 38.3204C162.818 38.0992 162.683 37.8984 162.513 37.7295C162.344 37.5605 162.143 37.4267 161.921 37.3358C161.699 37.2449 161.462 37.1986 161.222 37.1996ZM184.941 30.6298L182.332 37.3103H181.96L179.39 30.6298H176.133L180.086 39.7375L180.608 40.5913L180.403 40.8838H177.24V43.6271H179.074C181.446 43.6271 182.909 42.5678 183.905 40.2198L188 30.6298H184.941ZM170.71 30.3926C170.141 30.3687 169.574 30.4746 169.052 30.7019C168.531 30.9293 168.067 31.2723 167.697 31.705V30.6693H165.009V43.6271H167.824V39.5714C168.185 39.9618 168.623 40.2736 169.11 40.4872C169.597 40.7008 170.122 40.8116 170.654 40.8127C173.58 40.8127 175.303 38.6623 175.303 35.571C175.303 32.6696 173.54 30.3926 170.71 30.3926ZM170.101 38.1799C169.772 38.1811 169.447 38.1138 169.145 37.9825C168.843 37.8511 168.573 37.6585 168.35 37.4169C168.127 37.1753 167.957 36.89 167.85 36.579C167.743 36.268 167.702 35.9382 167.729 35.6105C167.698 35.281 167.737 34.9486 167.842 34.6348C167.947 34.321 168.117 34.0327 168.341 33.7884C168.564 33.5442 168.836 33.3494 169.139 33.2166C169.442 33.0838 169.77 33.016 170.101 33.0174C170.432 33.016 170.76 33.0838 171.063 33.2166C171.366 33.3494 171.638 33.5442 171.861 33.7884C172.085 34.0327 172.255 34.321 172.36 34.6348C172.465 34.9486 172.504 35.281 172.472 35.6105C172.5 35.9382 172.459 36.268 172.352 36.579C172.245 36.89 172.075 37.1753 171.852 37.4169C171.629 37.6585 171.358 37.8511 171.057 37.9825C170.755 38.1138 170.43 38.1811 170.101 38.1799Z" fill="#FF312C"/>
</g>
</g>
</svg>
