<svg width="1280" height="188" viewBox="0 0 1280 188" fill="none" xmlns="http://www.w3.org/2000/svg">
<path d="M170.055 146.192C175.622 136.224 178.405 124.595 178.405 111.305V66.4507C178.405 53.1606 175.622 41.5317 170.055 31.5641C164.489 21.5966 156.696 13.844 146.676 8.30642C136.656 2.76886 124.967 0 111.886 0H66.5191C53.438 0 41.7484 2.76886 31.7288 8.30642C21.7092 13.844 13.9161 21.5966 8.34969 31.5641C2.78323 41.5317 0 53.1606 0 66.4507V111.305C0 124.595 2.78323 136.224 8.34969 146.192C13.9161 156.159 21.7092 163.912 31.7288 169.449C41.7484 174.987 53.438 177.755 66.5191 177.755H111.886C124.132 177.755 134.987 174.987 144.45 170.28L162.262 188L185.085 165.296L168.107 148.406C168.664 147.853 169.499 147.022 170.055 146.192ZM111.607 147.576H66.2408C56.4995 147.576 48.7065 143.976 42.8617 137.054C37.0169 130.133 33.9554 120.996 33.9554 109.644V67.8351C33.9554 56.4831 37.0169 47.3462 42.8617 40.4242C48.7065 33.5023 56.4995 29.9028 66.2408 29.9028H111.607C121.349 29.9028 129.142 33.5023 134.987 40.4242C140.831 47.3462 143.893 56.4831 143.893 67.8351V109.644C143.893 114.351 143.058 118.781 141.945 122.657L119.679 100.507L96.8563 123.211L119.4 145.638C117.174 146.468 114.669 147.576 111.607 147.576Z" fill="#292D36"/>
<path d="M264.417 76.6969L220.163 1.66309H182.59L247.161 108.261V175.819H281.673V108.261L346.522 1.66309H308.948L264.417 76.6969Z" fill="#292D36"/>
<path d="M829.673 112.967C826.889 108.537 822.993 104.384 817.426 101.062V100.508C826.889 97.1853 833.847 92.4784 838.857 86.1102C843.867 79.742 846.372 72.2664 846.372 63.6832V46.2398C846.372 32.9497 841.64 22.4284 832.456 14.122C823.271 6.09258 811.025 1.93945 795.717 1.93945H702.757V146.193H669.637H570.554V101.892H662.122V71.9895H570.554V31.8422H669.637V1.93945H536.32V152.561C536.32 159.483 538.547 165.02 543 169.45C547.453 173.881 553.298 175.819 560.534 175.819H669.637H702.757H737.269V113.521H779.574C785.141 113.521 789.872 115.182 793.769 118.782C797.665 122.381 800.727 127.642 802.675 134.564L816.035 175.819H851.66L837.744 131.518C835.239 123.489 832.456 117.397 829.673 112.967ZM811.86 63.6832C811.86 69.7745 809.912 74.4814 805.737 78.3577C801.562 82.234 796.274 83.8952 789.316 83.8952H737.269V31.5654H795.16C800.17 31.5654 804.067 32.9497 807.128 35.9954C810.19 38.7642 811.582 42.6404 811.582 47.6242V63.6832H811.86Z" fill="#292D36"/>
<path d="M1077.65 112.967C1074.87 108.537 1070.97 104.384 1065.41 101.062V100.508C1074.87 97.1853 1081.83 92.4784 1086.84 86.1102C1091.85 79.742 1094.35 72.2664 1094.35 63.6832V46.2398C1094.35 32.9497 1089.62 22.4284 1080.44 14.122C1071.25 6.09258 1059.01 1.93945 1043.7 1.93945H950.738V176.095H985.25V113.798H1027.56C1033.12 113.798 1037.85 115.459 1041.75 119.059C1045.65 122.658 1048.71 127.919 1050.66 134.841L1064.02 176.095H1099.64L1085.72 131.795C1082.94 123.489 1080.44 117.397 1077.65 112.967ZM1059.84 63.6832C1059.84 69.7745 1057.89 74.4814 1053.72 78.3577C1049.54 82.2339 1044.25 83.8952 1037.3 83.8952H985.25V31.5654H1043.14C1048.15 31.5654 1052.05 32.9497 1055.11 35.9954C1058.17 38.7642 1059.56 42.6404 1059.56 47.6242V63.6832H1059.84Z" fill="#292D36"/>
<path d="M1245.21 1.66309V114.075C1245.21 124.043 1242.71 132.073 1237.42 138.164C1232.13 144.255 1225.45 147.301 1217.1 147.301H1190.66C1182.59 147.301 1175.91 144.255 1170.9 138.164C1165.89 132.073 1163.38 124.043 1163.38 114.075V1.66309H1128.87V114.906C1128.87 127.366 1131.38 138.164 1136.66 147.855C1141.95 157.268 1149.19 164.744 1158.37 169.728C1167.84 174.989 1178.41 177.481 1190.94 177.481H1217.38C1229.62 177.481 1240.48 174.989 1250.22 169.728C1259.68 164.467 1266.92 157.268 1272.21 147.855C1277.5 138.441 1280 127.366 1280 114.906V1.66309H1245.21Z" fill="#292D36"/>
<path d="M916.235 145.918H886.176V175.821H916.235V145.918Z" fill="#292D36"/>
<path d="M485.942 84.1726C490.952 80.85 494.849 76.6969 497.632 71.7131C500.415 66.7293 501.807 61.4686 501.807 55.931V43.4716C501.807 30.7352 497.075 20.7676 487.334 13.2919C477.593 5.81625 465.068 2.2168 449.204 2.2168H362.367V152.284V152.838V175.819H457.832C474.531 175.819 487.891 171.666 497.91 163.637C507.93 155.607 512.661 144.809 512.661 131.242V118.782C512.661 111.03 510.157 103.831 505.147 97.7396C500.415 91.3714 494.014 86.9414 485.942 84.1726ZM396.601 32.1196H447.812C453.657 32.1196 458.389 33.504 461.728 36.2727C465.347 39.0415 467.017 42.641 467.017 47.3479V55.931C467.017 61.4686 465.347 66.1756 462.007 69.4981C458.667 72.8206 454.214 74.4819 448.926 74.4819H396.323V32.1196H396.601ZM478.149 129.304C478.149 134.564 476.201 138.717 472.026 141.486C468.13 144.255 462.285 145.916 455.049 145.916H396.601V102.723H458.945C464.79 102.723 469.521 104.108 472.861 107.153C476.479 110.199 478.149 114.075 478.149 118.782V129.304Z" fill="#292D36"/>
</svg>
