<svg width="168" height="168" viewBox="0 0 168 168" fill="none" xmlns="http://www.w3.org/2000/svg">
<g id="talents" clip-path="url(#clip0_1501_77771)">
<g id="Group">
<g id="Group_2">
<path id="Vector" d="M138.269 83.977C138.269 84.4082 138.215 84.8394 138.215 85.2707L147.972 95.0267C148.565 91.4692 148.996 87.804 148.996 84.0309C148.996 80.2579 148.619 76.5926 147.972 73.0352L138.215 82.7912C138.215 83.1685 138.269 83.5458 138.269 83.977Z" fill="white"/>
<path id="Vector_2" d="M44.8557 46.5715C54.72 36.2225 68.6269 29.7005 84.0431 29.7005C99.4593 29.7005 113.366 36.1686 123.23 46.5715H137.03C125.279 29.97 105.928 19.082 84.0431 19.082C62.1586 19.082 42.8075 29.97 31.0566 46.5715H44.8557Z" fill="white"/>
<path id="Vector_3" d="M123.176 121.441C122.637 122.034 122.044 122.573 121.505 123.112V137.019C127.542 132.761 132.825 127.478 137.083 121.441H123.176Z" fill="white"/>
<path id="Vector_4" d="M85.2288 138.147C84.8515 138.147 84.4203 138.201 84.043 138.201C54.1269 138.201 29.8168 113.892 29.8168 83.977C29.8168 83.5997 29.8706 83.1685 29.8706 82.7912L20.1143 73.0352C19.5213 76.5926 19.0901 80.2579 19.0901 84.0309C19.0901 119.875 48.1437 148.981 84.043 148.981C87.8162 148.981 91.4815 148.604 95.0391 147.957L85.2288 138.147Z" fill="white"/>
<g id="Group_3">
<path id="Vector_5" d="M116.115 161.487V131.194L58.2236 73.3049H140.102L161.501 51.9062H6.58472L116.115 161.487Z" fill="white"/>
<path id="Vector_6" d="M84.043 83.9766L116.115 116.101H161.501L129.429 83.9766H84.043Z" fill="white"/>
</g>
</g>
</g>
</g>
<defs>
<clipPath id="clip0_1501_77771">
<rect width="168" height="168" fill="white"/>
</clipPath>
</defs>
</svg>
