<svg width="88" height="44" viewBox="0 0 88 44" fill="none" xmlns="http://www.w3.org/2000/svg">
<g clip-path="url(#clip0_3759_44460)">
<path fill-rule="evenodd" clip-rule="evenodd" d="M16.8119 14.8335C16.0693 14.9023 15.7405 15.0281 15.3913 15.3774C15.0196 15.7491 14.9087 16.061 14.8385 16.9325C14.7606 17.8978 14.8059 19.3666 14.9305 19.9203C15.0586 20.4899 15.4784 20.9559 16.036 21.1478C16.6401 21.3556 19.0629 21.3884 19.8927 21.2C20.4009 21.0846 20.8636 20.7138 21.0822 20.2466C21.2469 19.8948 21.3107 19.3008 21.313 18.1001C21.3165 16.2352 21.1761 15.6927 20.5708 15.2317C20.3002 15.0255 20.0366 14.9212 19.6492 14.8669C19.2682 14.8134 17.2809 14.7901 16.8119 14.8335ZM24.6804 14.8359C24.2043 14.8769 23.9851 14.9229 23.7568 15.0293C23.334 15.2266 23.0048 15.5943 22.8578 16.0334C22.6603 16.6231 22.6172 18.7244 22.7808 19.781C22.8874 20.4692 23.427 21.0446 24.1116 21.2C24.5002 21.2883 25.5708 21.345 26.3612 21.3192C27.6557 21.277 28.04 21.1985 28.4405 20.8944C28.8456 20.5867 29.0578 20.1832 29.1333 19.5767C29.1985 19.0527 29.2196 17.6522 29.1717 17.0244C29.0986 16.0653 28.9956 15.7601 28.6176 15.382C28.2544 15.0189 27.9278 14.8986 27.1257 14.8327C26.5782 14.7878 25.2182 14.7895 24.6804 14.8359ZM19.2649 16.0515C19.7507 16.0952 19.8655 16.146 19.9686 16.3631C20.0748 16.587 20.1339 17.4829 20.1049 18.4326C20.0577 19.9837 20.0456 20.0035 19.1022 20.0794C18.5127 20.1268 16.9946 20.1038 16.5932 20.0413C16.4193 20.0143 16.349 19.9819 16.2504 19.8833C16.0812 19.714 16.0576 19.5542 16.0302 18.393C16.0059 17.3592 16.0556 16.5223 16.1526 16.3346C16.2724 16.1028 16.4668 16.0549 17.4399 16.0173C18.1472 15.99 18.6958 16.0003 19.2649 16.0515ZM27.1362 16.0518C27.8207 16.1133 27.8832 16.1809 27.9516 16.9338C28.0018 17.4853 27.9774 19.2133 27.9146 19.5577C27.8622 19.8451 27.7056 19.9955 27.4111 20.0413C27.0096 20.1038 25.4915 20.1268 24.902 20.0794C23.9587 20.0035 23.945 19.9811 23.8989 18.4326C23.8706 17.4822 23.9298 16.5861 24.0357 16.3631C24.1636 16.0937 24.3128 16.0537 25.3268 16.0167C26.0524 15.9903 26.5613 16.0001 27.1362 16.0518ZM17.2182 22.687C16.6941 22.719 16.2241 22.7824 16.0396 22.8459C15.4783 23.039 15.0589 23.5035 14.9305 24.0746C14.7585 24.8388 14.7585 27.0243 14.9304 27.7883C15.0044 28.1173 15.1448 28.371 15.3867 28.6129C15.6207 28.8469 15.8763 28.9919 16.1937 29.0707C16.8911 29.2439 19.2489 29.2429 19.948 29.0692C20.4364 28.9478 20.8463 28.6125 21.0593 28.1601C21.2152 27.8289 21.2503 27.6165 21.3058 26.6654C21.3503 25.9027 21.3127 24.773 21.224 24.2128C21.1149 23.5238 20.5774 22.9511 19.8927 22.7945C19.4487 22.693 18.044 22.6365 17.2182 22.687ZM24.8281 22.7009C24.5843 22.7193 24.271 22.7597 24.1318 22.7906C23.4309 22.9461 22.8886 23.5174 22.7808 24.2139C22.6176 25.2675 22.658 27.3205 22.8541 27.945C22.9548 28.2657 23.1592 28.5544 23.4335 28.7632C23.867 29.0935 24.1742 29.1552 25.5546 29.1891C26.5232 29.2129 27.463 29.1632 27.8246 29.0691C28.1345 28.9884 28.3879 28.8425 28.6176 28.6129C28.8591 28.3713 28.9995 28.118 29.0745 27.7883C29.1683 27.3758 29.2179 26.4379 29.1932 25.5482C29.1568 24.2415 29.0944 23.9006 28.8171 23.4936C28.516 23.0515 28.0751 22.8134 27.414 22.7357C26.9545 22.6818 25.3651 22.6604 24.8281 22.7009ZM19.5188 23.9488C19.7496 23.9849 19.8918 24.0793 19.9773 24.2533C20.0722 24.4462 20.1336 25.448 20.1053 26.3381C20.0592 27.7853 20.0154 27.8731 19.3054 27.9445C18.8008 27.9953 17.326 27.9948 16.8304 27.9437C16.1859 27.8772 16.12 27.8024 16.0526 27.0611C16.0026 26.5105 16.0268 24.7816 16.0895 24.4386C16.1322 24.2044 16.2974 24.0055 16.4773 23.9718C16.9304 23.8868 19.0213 23.871 19.5188 23.9488ZM27.4111 23.9527C27.7058 23.9997 27.8623 24.1504 27.9146 24.4372C27.9774 24.7816 28.0018 26.5096 27.9516 27.0611C27.8843 27.8024 27.8183 27.8772 27.1739 27.9437C26.6747 27.9951 25.1992 27.9952 24.701 27.9437C24.0516 27.8767 23.9895 27.7943 23.9205 26.9106C23.8735 26.3076 23.8933 24.9979 23.9566 24.5313C24.0167 24.0884 24.1601 23.9764 24.7362 23.9228C25.1892 23.8805 27.0926 23.9018 27.4111 23.9527Z" fill="currentColor"/>
</g>
<path d="M70.6667 15.3333H61.3333C59.4953 15.3333 58 16.8286 58 18.6666V25.3333C58 27.1713 59.4953 28.6666 61.3333 28.6666H70.6667C72.5047 28.6666 74 27.1713 74 25.3333V18.6666C74 16.8286 72.5047 15.3333 70.6667 15.3333ZM59.3333 20.6666H62V23.3333H59.3333V20.6666ZM63.3333 20.6666H72.6667V23.3333H63.3333V20.6666ZM72.6667 18.6666V19.3333H63.3333V16.6666H70.6667C71.7693 16.6666 72.6667 17.5639 72.6667 18.6666ZM61.3333 16.6666H62V19.3333H59.3333V18.6666C59.3333 17.5639 60.2307 16.6666 61.3333 16.6666ZM59.3333 25.3333V24.6666H62V27.3333H61.3333C60.2307 27.3333 59.3333 26.4359 59.3333 25.3333ZM70.6667 27.3333H63.3333V24.6666H72.6667V25.3333C72.6667 26.4359 71.7693 27.3333 70.6667 27.3333Z" fill="currentColor"/>
<defs>
<clipPath id="clip0_3759_44460">
<rect x="14" y="14" width="16" height="16" fill="white"/>
</clipPath>
</defs>
</svg>
