<svg width="16" height="16" viewBox="0 0 16 16" fill="none" xmlns="http://www.w3.org/2000/svg">
<g id="Cross">
<path id="Vector" d="M9.06045 7.99999L13.7803 3.28068C14.0732 2.9877 14.0732 2.51269 13.7803 2.21974C13.4873 1.92675 13.0123 1.92675 12.7193 2.21974L7.99999 6.93953L3.28068 2.21974C2.9877 1.92675 2.51269 1.92675 2.21974 2.21974C1.92678 2.51272 1.92675 2.98773 2.21974 3.28068L6.93953 7.99999L2.21974 12.7193C1.92675 13.0123 1.92675 13.4873 2.21974 13.7803C2.51272 14.0732 2.98773 14.0732 3.28068 13.7803L7.99999 9.06045L12.7193 13.7803C13.0123 14.0732 13.4873 14.0732 13.7802 13.7803C14.0732 13.4873 14.0732 13.0123 13.7802 12.7193L9.06045 7.99999Z" fill="#292D36"/>
</g>
</svg>
