<svg width="17" height="8" viewBox="0 0 17 8" fill="none" xmlns="http://www.w3.org/2000/svg">
<g id="Group 6">
<path id="Layer 2" fill-rule="evenodd" clip-rule="evenodd" d="M8.8817 0.617227C8.63855 0.706107 8.51362 0.995784 8.62345 1.21594C8.70276 1.37493 8.65324 1.44681 8.46451 1.44681C8.28271 1.44681 8.02015 1.72814 7.86098 2.09345C7.75537 2.33597 7.70789 2.39746 7.61802 2.4083C7.52165 2.41991 7.48905 2.47324 7.38085 2.79592C7.25646 3.16691 7.25619 3.17054 7.34698 3.21915C7.45812 3.2786 7.43363 3.42888 7.27374 3.66881C7.21556 3.7561 7.14133 3.90407 7.10877 3.99758C7.06995 4.10913 7.02152 4.16763 6.96801 4.16763C6.92067 4.16763 6.8863 4.20096 6.88607 4.24698C6.88584 4.29065 6.86489 4.50782 6.8395 4.72961C6.79596 5.10944 6.78345 5.1425 6.62446 5.29772C6.39845 5.51842 5.87973 6.56798 5.86916 6.82591C5.86499 6.92867 5.82685 7.06571 5.7845 7.13042C5.64279 7.34668 5.67626 7.38726 5.9965 7.38726C6.284 7.38726 6.28572 7.38649 6.31393 7.24556C6.32952 7.1676 6.34227 7.05401 6.34227 6.99306C6.34227 6.91756 6.50778 6.68774 6.86231 6.27123C7.28617 5.77314 7.42021 5.57878 7.58732 5.22C7.87527 4.60173 7.9456 4.47045 7.99743 4.45472C8.02237 4.44719 8.14282 4.59471 8.26507 4.78258C8.38733 4.97045 8.5387 5.16458 8.60146 5.21392L8.71555 5.30371L8.55139 5.63125C8.40769 5.91802 8.14966 6.84727 8.1016 7.25122L8.08813 7.36459L8.59828 7.36296C9.00636 7.36169 9.12313 7.34668 9.18181 7.28795C9.27658 7.19322 9.23464 7.12992 9.05125 7.09097C8.89567 7.05791 8.74566 6.95089 8.74566 6.87298C8.74566 6.84732 8.78779 6.78147 8.83921 6.72665C8.98223 6.57442 9.47135 5.40225 9.47053 5.21369C9.46999 5.09547 9.37834 4.89431 9.13043 4.4671C8.89181 4.05598 8.79101 3.83714 8.79101 3.73021C8.79101 3.63525 8.81327 3.57812 8.85028 3.57812C8.92791 3.57812 9.22013 2.97269 9.18575 2.88304C9.17111 2.84499 9.19015 2.78817 9.22797 2.75675C9.28402 2.71026 9.32474 2.71471 9.44736 2.78073C9.67468 2.90317 9.84727 2.84776 9.9503 2.6193C10.024 2.45578 10.0367 2.44616 10.0678 2.53019C10.0869 2.58193 10.1289 2.61617 10.161 2.60619C10.1931 2.59622 10.2729 2.57645 10.3382 2.56221C10.4527 2.53731 10.4567 2.52552 10.4517 2.22968C10.4488 2.06099 10.4629 1.89746 10.4829 1.86627C10.5089 1.82613 10.6776 1.80958 11.061 1.80958H11.6025V1.69621C11.6025 1.5921 11.6192 1.58285 11.8066 1.58285C11.9188 1.58285 12.0106 1.56244 12.0106 1.5375C12.0106 1.51256 11.9188 1.49215 11.8066 1.49215C11.6554 1.49215 11.6025 1.47451 11.6025 1.42413C11.6025 1.38672 11.5821 1.35611 11.5572 1.35611C11.5322 1.35611 11.5118 1.37652 11.5118 1.40146C11.5118 1.43025 11.1642 1.44681 10.5595 1.44681C9.95493 1.44681 9.60725 1.43025 9.60725 1.40146C9.60725 1.37652 9.6355 1.35611 9.66997 1.35611C9.79703 1.35611 9.78606 1.11931 9.64983 0.921279C9.47357 0.665068 9.12657 0.527712 8.8817 0.617227ZM2.96391 2.48825C2.39476 2.51822 2.27133 2.55613 1.95172 2.7991C1.70708 2.98507 1.57757 3.22291 1.07063 4.41704C0.45042 5.87798 0.480939 5.78996 0.515176 6.01905C0.552224 6.26728 0.79669 6.55048 1.02977 6.61523C1.24925 6.67618 4.34568 6.67722 4.50567 6.61637C4.59546 6.58226 4.66905 6.47552 4.80342 6.18475C4.90155 5.9723 4.98186 5.77844 4.98186 5.75396C4.98186 5.72566 4.38568 5.70943 3.34451 5.70943C2.05248 5.70943 1.71206 5.69745 1.73039 5.65274C1.74313 5.62159 1.93916 5.16254 2.16603 4.63271C2.39286 4.10287 2.57846 3.65942 2.57846 3.64727C2.57846 3.63512 2.48151 3.57476 2.36307 3.51309L2.14767 3.40094L4.0132 3.39886C5.72192 3.39691 5.88667 3.39006 5.97305 3.31737C6.04633 3.25574 6.38761 2.55241 6.38761 2.46308C6.38761 2.43492 3.58612 2.4555 2.96391 2.48825ZM12.4597 2.49038C12.086 2.55359 11.7309 2.78119 11.5213 3.092C11.3177 3.39373 11.0444 4.07603 11.0438 4.28403C11.0431 4.51576 11.2011 4.80475 11.3914 4.91993C11.5214 4.99861 11.66 5.00863 12.9023 5.02922L14.27 5.05189L14.1284 5.38066L13.9867 5.70943H12.2328C10.6286 5.70943 10.4708 5.71618 10.3846 5.78878C10.3103 5.85127 9.97003 6.55429 9.97003 6.64521C9.97003 6.65663 10.8934 6.65958 12.022 6.65174C14.3107 6.63586 14.2778 6.64004 14.6769 6.31299C14.9329 6.10331 15.0892 5.85685 15.2996 5.33159C15.5393 4.73292 15.4885 4.44696 15.0947 4.17896C14.9475 4.07879 14.9203 4.07693 13.5911 4.07693C12.1416 4.07693 12.1727 4.08242 12.3054 3.8502C12.4064 3.67357 12.3887 3.63317 12.158 3.51309L11.9426 3.40094L13.9669 3.39886C15.8292 3.39691 15.999 3.39033 16.0896 3.31696C16.1751 3.24772 16.5 2.58692 16.5 2.48221C16.5 2.43483 12.7433 2.4424 12.4597 2.49038Z" fill="currentColor"/>
</g>
</svg>
