<svg width="16" height="8" viewBox="0 0 16 8" fill="none" xmlns="http://www.w3.org/2000/svg">
<g id="Group 6">
<path id="Layer 2" fill-rule="evenodd" clip-rule="evenodd" d="M8.3817 0.61918C8.13855 0.708061 8.01362 0.997737 8.12345 1.2179C8.20276 1.37688 8.15324 1.44876 7.96451 1.44876C7.78271 1.44876 7.52015 1.73009 7.36098 2.09541C7.25537 2.33792 7.20789 2.39941 7.11802 2.41025C7.02165 2.42186 6.98905 2.47519 6.88085 2.79788C6.75646 3.16886 6.75619 3.17249 6.84698 3.2211C6.95812 3.28055 6.93363 3.43083 6.77374 3.67076C6.71556 3.75806 6.64133 3.90602 6.60877 3.99953C6.56995 4.11108 6.52152 4.16958 6.46801 4.16958C6.42067 4.16958 6.3863 4.20291 6.38607 4.24894C6.38584 4.29261 6.36489 4.50977 6.3395 4.73157C6.29596 5.11139 6.28345 5.14445 6.12446 5.29967C5.89845 5.52038 5.37973 6.56993 5.36916 6.82787C5.36499 6.93062 5.32685 7.06766 5.2845 7.13237C5.14279 7.34863 5.17626 7.38922 5.4965 7.38922C5.784 7.38922 5.78572 7.38845 5.81393 7.24751C5.82952 7.16956 5.84227 7.05596 5.84227 6.99502C5.84227 6.91951 6.00778 6.6897 6.36231 6.27318C6.78617 5.77509 6.92021 5.58073 7.08732 5.22195C7.37527 4.60369 7.4456 4.47241 7.49743 4.45667C7.52237 4.44914 7.64282 4.59666 7.76507 4.78453C7.88733 4.9724 8.0387 5.16653 8.10146 5.21587L8.21555 5.30566L8.05139 5.6332C7.90769 5.91997 7.64966 6.84923 7.6016 7.25318L7.58813 7.36654L8.09828 7.36491C8.50636 7.36364 8.62313 7.34863 8.68181 7.28991C8.77658 7.19518 8.73464 7.13187 8.55125 7.09292C8.39567 7.05986 8.24566 6.95284 8.24566 6.87494C8.24566 6.84927 8.28779 6.78343 8.33921 6.7286C8.48223 6.57637 8.97135 5.4042 8.97053 5.21564C8.96999 5.09743 8.87834 4.89627 8.63043 4.46905C8.39181 4.05794 8.29101 3.83909 8.29101 3.73216C8.29101 3.63721 8.31327 3.58007 8.35028 3.58007C8.42791 3.58007 8.72013 2.97464 8.68575 2.88499C8.67111 2.84694 8.69015 2.79012 8.72797 2.7587C8.78402 2.71222 8.82474 2.71666 8.94736 2.78269C9.17468 2.90512 9.34727 2.84971 9.4503 2.62125C9.52404 2.45773 9.53669 2.44812 9.56775 2.53214C9.58693 2.58389 9.62888 2.61812 9.66103 2.60815C9.69314 2.59817 9.77286 2.5784 9.8382 2.56416C9.95275 2.53926 9.95674 2.52747 9.95166 2.23163C9.94876 2.06294 9.96286 1.89942 9.98295 1.86822C10.0089 1.82809 10.1776 1.81153 10.561 1.81153H11.1025V1.69817C11.1025 1.59405 11.1192 1.5848 11.3066 1.5848C11.4188 1.5848 11.5106 1.56439 11.5106 1.53945C11.5106 1.51451 11.4188 1.49411 11.3066 1.49411C11.1554 1.49411 11.1025 1.47647 11.1025 1.42609C11.1025 1.38867 11.0821 1.35806 11.0572 1.35806C11.0322 1.35806 11.0118 1.37847 11.0118 1.40341C11.0118 1.43221 10.6642 1.44876 10.0595 1.44876C9.45493 1.44876 9.10725 1.43221 9.10725 1.40341C9.10725 1.37847 9.1355 1.35806 9.16997 1.35806C9.29703 1.35806 9.28606 1.12126 9.14983 0.923232C8.97357 0.667021 8.62657 0.529665 8.3817 0.61918ZM2.46391 2.4902C1.89476 2.52017 1.77133 2.55808 1.45172 2.80105C1.20708 2.98702 1.07757 3.22487 0.570631 4.41899C-0.04958 5.87993 -0.0190614 5.79191 0.0151756 6.02101C0.0522241 6.26924 0.29669 6.55243 0.529774 6.61719C0.749253 6.67813 3.84568 6.67917 4.00567 6.61832C4.09546 6.58422 4.16905 6.47747 4.30342 6.18671C4.40155 5.97426 4.48186 5.7804 4.48186 5.75591C4.48186 5.72761 3.88568 5.71138 2.84451 5.71138C1.55248 5.71138 1.21206 5.69941 1.23039 5.6547C1.24313 5.62354 1.43916 5.16449 1.66603 4.63466C1.89286 4.10482 2.07846 3.66138 2.07846 3.64922C2.07846 3.63707 1.98151 3.57671 1.86307 3.51504L1.64767 3.4029L3.5132 3.40081C5.22192 3.39886 5.38667 3.39201 5.47305 3.31932C5.54633 3.2577 5.88761 2.55436 5.88761 2.46503C5.88761 2.43687 3.08612 2.45746 2.46391 2.4902ZM11.9597 2.49233C11.586 2.55554 11.2309 2.78314 11.0213 3.09395C10.8177 3.39569 10.5444 4.07798 10.5438 4.28599C10.5431 4.51771 10.7011 4.80671 10.8914 4.92189C11.0214 5.00056 11.16 5.01059 12.4023 5.03117L13.77 5.05385L13.6284 5.38261L13.4867 5.71138H11.7328C10.1286 5.71138 9.97084 5.71814 9.88459 5.79074C9.81031 5.85322 9.47003 6.55624 9.47003 6.64716C9.47003 6.65859 10.3934 6.66153 11.522 6.65369C13.8107 6.63782 13.7778 6.64199 14.1769 6.31495C14.4329 6.10526 14.5892 5.8588 14.7996 5.33355C15.0393 4.73488 14.9885 4.44892 14.5947 4.18092C14.4475 4.08075 14.4203 4.07889 13.0911 4.07889C11.6416 4.07889 11.6727 4.08437 11.8054 3.85215C11.9064 3.67552 11.8887 3.63512 11.658 3.51504L11.4426 3.4029L13.4669 3.40081C15.3292 3.39886 15.499 3.39229 15.5896 3.31892C15.6751 3.24967 16 2.58887 16 2.48417C16 2.43678 12.2433 2.44435 11.9597 2.49233Z" fill="#28397F"/>
</g>
</svg>
