<svg width="17" height="16" viewBox="0 0 17 16" fill="none" xmlns="http://www.w3.org/2000/svg">
<g id="Group 5">
<path id="path2430" d="M7.0455 15.8014L6.8145 15.6031L6.50256 15.5771C6.11303 15.5447 5.93146 15.5087 5.71166 15.4204L5.53895 15.3509L5.35481 15.4252C5.19723 15.4888 4.81158 15.5472 4.51921 15.5519C4.50343 15.5522 4.47634 15.5145 4.45901 15.4682C4.44168 15.4219 4.40803 15.3765 4.38423 15.3673C4.36043 15.3581 4.18366 15.3984 3.9914 15.4568L3.64184 15.563L3.5164 15.5015C3.3575 15.4237 3.28958 15.4244 3.02435 15.5069C2.82271 15.5696 2.79857 15.5714 2.63455 15.536C2.39387 15.4839 2.19087 15.4877 1.7366 15.5528C1.23991 15.6239 1.23022 15.6234 1.08426 15.5237C0.986232 15.4568 0.932076 15.44 0.813327 15.44C0.678235 15.44 0.663344 15.4338 0.64744 15.3698C0.637392 15.3295 0.649614 15.2501 0.676197 15.1831C0.749989 14.9972 0.779599 14.543 0.788475 13.4608L0.796767 12.4502L0.935983 12.4595L1.0752 12.4689L1.09636 11.884C1.10799 11.5624 1.1188 11.0992 1.12038 10.8548L1.12325 10.4104L1.04884 10.3557C0.845022 10.206 0.854878 10.2278 0.770227 9.73867C0.726366 9.48524 0.682726 9.11327 0.673248 8.91207C0.656405 8.55451 0.65752 8.54452 0.722578 8.46959L0.789138 8.39293L0.955152 8.53677C1.04646 8.61588 1.12565 8.66705 1.13113 8.65047C1.15601 8.5752 1.08191 7.66825 1.04161 7.55485C1.0176 7.48729 0.997958 7.39439 0.997958 7.3484C0.997958 7.30242 0.952446 7.17747 0.896819 7.07073L0.795679 6.87667L0.829357 6.53132C0.873915 6.0744 0.817535 5.73865 0.628228 5.33355L0.542955 5.15107L0.597081 4.69852L0.651208 4.24598L0.592708 4.01072L0.534208 3.77546L0.602508 3.51279L0.670807 3.25013L0.592862 2.99392L0.514916 2.73772L0.610263 2.47053C0.703742 2.20857 0.705579 2.19481 0.704032 1.76819C0.702299 1.28817 0.651128 0.975881 0.553784 0.851103C0.468992 0.742414 0.482524 0.667577 0.608161 0.550369C0.669415 0.493225 0.719531 0.421714 0.719531 0.391455C0.719531 0.344082 0.739837 0.336134 0.865706 0.334239C0.946101 0.333033 1.19355 0.310923 1.4156 0.28511L1.81932 0.238182L2.34833 0.31584C2.87673 0.393409 2.87817 0.393463 3.60192 0.362388L4.3265 0.331277L4.49854 0.434609L4.67057 0.537941L5.37491 0.527475L6.07925 0.51701L6.31592 0.430658C6.44608 0.383165 6.65281 0.29884 6.77532 0.243269C6.89783 0.187699 7.11739 0.11023 7.26324 0.071116L7.52841 0L7.87082 0.109361L8.21323 0.218721L8.50898 0.118863L8.80473 0.0190059L9.12258 0.124485C9.2974 0.182499 9.62372 0.325003 9.84775 0.441161L10.2551 0.652357L10.6825 0.639259C11.0055 0.629362 11.1158 0.616666 11.1338 0.587333C11.1469 0.56598 11.1864 0.442509 11.2217 0.312955L11.2858 0.077402L11.6896 0.0911675C11.9909 0.101442 12.2614 0.134628 12.756 0.222016L13.4188 0.339098L13.5913 0.269705C13.6862 0.231539 13.865 0.186429 13.9886 0.169461C14.1982 0.140688 14.2339 0.143854 14.5176 0.21647C14.7841 0.284656 14.8738 0.294269 15.2395 0.293844C15.4692 0.293577 15.7086 0.284236 15.7716 0.273085C15.8802 0.253843 15.8979 0.26145 16.1188 0.422302C16.2468 0.515522 16.3607 0.60665 16.3718 0.624808C16.3829 0.642967 16.4061 0.741567 16.4232 0.843919L16.4543 1.03001L16.3133 1.29616C16.2357 1.44255 16.1722 1.57503 16.1722 1.59056C16.1722 1.6061 16.2031 1.63297 16.2407 1.65027C16.2784 1.66757 16.343 1.73319 16.3843 1.79608L16.4593 1.91043L16.441 3.44653C16.431 4.29138 16.4147 5.04438 16.4048 5.11986L16.3869 5.25709L16.1572 5.24074L15.9275 5.2244L15.9087 5.35106C15.8983 5.42072 15.8899 5.54898 15.8899 5.63609C15.8899 5.76511 15.8699 5.83334 15.7821 6.00419L15.6744 6.21391L15.734 6.30011C15.7668 6.34752 15.8808 6.47777 15.9874 6.58956L16.1811 6.79283L16.1224 7.01067L16.0637 7.22851L16.1335 7.69173C16.2172 8.24697 16.2102 8.38735 16.0752 8.86935C16.0214 9.06155 15.9774 9.24056 15.9774 9.26717C15.9774 9.31719 16.0149 9.32997 16.2627 9.36423C16.3734 9.37954 16.3951 9.3923 16.3953 9.4425C16.3955 9.47549 16.4136 10.1847 16.4356 11.0185C16.5077 13.7578 16.5143 14.3557 16.4798 14.9763C16.4618 15.3003 16.4423 15.5701 16.4366 15.5759C16.4307 15.5818 16.2092 15.4927 15.9442 15.378L15.4623 15.1695L15.254 15.2608C15.0401 15.3546 15.0187 15.3787 14.9897 15.5586C14.9704 15.6778 14.9844 15.672 14.4559 15.781L14.1455 15.845L13.8433 15.7427C13.5631 15.6479 13.5239 15.6416 13.3045 15.6558C13.1388 15.6665 13.0262 15.6588 12.9292 15.63C12.7906 15.5889 12.7904 15.589 12.557 15.6972L12.3236 15.8054L11.4567 15.8046C10.5437 15.8038 10.356 15.818 9.72667 15.9352C9.29251 16.0161 9.13987 16.0144 8.37893 15.9207L7.97785 15.8713L7.69679 15.9358C7.5422 15.9713 7.3844 16.0002 7.34611 16C7.30052 15.9998 7.19679 15.9313 7.0455 15.8014ZM5.35637 13.3212C6.02626 13.0669 6.57832 12.8547 6.58319 12.8498C6.59189 12.841 3.9711 10.2778 3.62354 9.95514C3.52581 9.86441 3.44016 9.79593 3.43319 9.80295C3.42623 9.80997 3.21321 10.3832 2.95983 11.0768C2.68073 11.8408 2.50782 12.3521 2.52118 12.3739C2.53803 12.4013 4.11556 13.7793 4.13434 13.7829C4.13658 13.7834 4.68649 13.5756 5.35637 13.3212ZM14.3637 11.9168C14.7119 11.0676 14.9888 10.3646 14.9789 10.3546C14.9654 10.3408 8.42647 5.88797 3.84705 2.77408L3.4803 2.5247L2.87901 2.79762C2.54829 2.94773 2.2821 3.08382 2.28746 3.10004C2.29283 3.11627 4.5076 5.45657 7.20917 8.30071L12.1211 13.4719L12.9259 13.4663L13.7306 13.4608L14.3637 11.9168ZM13.4564 4.61934C13.5719 3.97308 13.6664 3.4228 13.6664 3.3965C13.6664 3.36659 13.4975 3.22878 13.2156 3.02867C12.9677 2.85266 12.7488 2.69878 12.7292 2.6867C12.6936 2.66473 10.1288 3.3639 10.1321 3.39467C10.1343 3.41523 13.2279 5.8131 13.2385 5.80245C13.2429 5.79799 13.341 5.2656 13.4564 4.61934Z" fill="currentColor"/>
</g>
</svg>
