<svg width="17" height="16" viewBox="0 0 17 16" fill="none" xmlns="http://www.w3.org/2000/svg">
<g clip-path="url(#clip0_1780_24243)">
<path d="M15.8335 10.0003H15.3888C15.2222 10.0003 15.0568 10.013 14.8922 10.0383L10.1948 6.51567L11.3202 5.43834C11.5862 5.18367 11.5955 4.76101 11.3408 4.49567C11.0855 4.22967 10.6628 4.22101 10.3982 4.47501L7.61618 7.13834C7.47751 7.27701 7.28885 7.34834 7.09085 7.33167C6.89218 7.31567 6.71751 7.21501 6.59818 7.04834C6.41551 6.79501 6.47151 6.39834 6.71018 6.15901L9.84551 3.20634C10.4395 2.64834 11.3682 2.51167 12.0948 2.87634L13.6388 3.64834C14.0988 3.87834 14.6148 3.99967 15.1288 3.99967H15.8328C16.2015 3.99967 16.4995 3.70167 16.4995 3.33301C16.4995 2.96434 16.2015 2.66634 15.8328 2.66634H15.1288C14.8202 2.66634 14.5102 2.59367 14.2342 2.45567L12.6915 1.68367C11.4755 1.07501 9.92285 1.30101 8.93085 2.23567L8.51885 2.62367L8.05218 2.19834C7.43951 1.64034 6.64618 1.33301 5.79218 1.33301C5.27818 1.33301 4.76551 1.45434 4.30751 1.68301L2.76485 2.45501C2.48818 2.59301 2.17818 2.66567 1.86951 2.66567H1.16685C0.798178 2.66567 0.500178 2.96367 0.500178 3.33234C0.500178 3.70101 0.798178 3.99901 1.16685 3.99901H1.87085C2.38485 3.99901 2.90085 3.87701 3.36151 3.64767L4.90551 2.87567C5.58685 2.53301 6.54418 2.62567 7.15485 3.18367L7.54618 3.54034L5.78218 5.20167C5.06685 5.91634 4.95285 7.04634 5.51685 7.82701C5.86351 8.30901 6.55218 8.66634 7.14618 8.66634C7.67485 8.66634 8.18218 8.45834 8.54885 8.09101L9.21951 7.44901L13.4502 10.6217C13.4295 10.6363 9.31818 13.719 9.31818 13.719C8.83618 14.0937 8.16351 14.0937 7.67151 13.7117L3.61085 10.6663C3.03818 10.2363 2.32751 9.99967 1.61085 9.99967H1.16618C0.797512 9.99967 0.499512 10.2977 0.499512 10.6663C0.499512 11.035 0.797512 11.333 1.16618 11.333H1.61085C2.04085 11.333 2.46685 11.475 2.81085 11.733L6.86218 14.7717C7.34551 15.1477 7.92485 15.3357 8.50285 15.3357C9.07751 15.3357 9.65151 15.1497 10.1275 14.779L14.1895 11.7337C14.5328 11.4757 14.9588 11.3337 15.3888 11.3337H15.8335C16.2022 11.3337 16.5002 11.0357 16.5002 10.667C16.5002 10.2983 16.2022 10.0003 15.8335 10.0003Z" fill="#9E9FA3"/>
</g>
<defs>
<clipPath id="clip0_1780_24243">
<rect width="16" height="16" fill="white" transform="translate(0.5)"/>
</clipPath>
</defs>
</svg>
