<svg width="24" height="24" viewBox="0 0 24 24" fill="none" xmlns="http://www.w3.org/2000/svg">
<path d="M13.5001 6.50004C13.5001 6.89787 13.342 7.2794 13.0607 7.5607C12.7794 7.84201 12.3979 8.00004 12.0001 8.00004C11.6022 8.00004 11.2207 7.84201 10.9394 7.5607C10.6581 7.2794 10.5001 6.89787 10.5001 6.50004C10.5001 6.10222 10.6581 5.72069 10.9394 5.43938C11.2207 5.15808 11.6022 5.00004 12.0001 5.00004C12.3979 5.00004 12.7794 5.15808 13.0607 5.43938C13.342 5.72069 13.5001 6.10222 13.5001 6.50004ZM24.0001 19V12.34C24.0374 9.25749 22.9072 6.27494 20.8364 3.99121C18.7656 1.70749 15.9075 0.29168 12.8361 0.0280426C11.1217 -0.0918997 9.40159 0.157782 7.79209 0.760195C6.18259 1.36261 4.72126 2.3037 3.50697 3.51979C2.29268 4.73588 1.35375 6.19861 0.753728 7.809C0.153701 9.41939 -0.0934304 11.1399 0.0290532 12.854C0.471053 19.208 6.08205 24 13.0831 24H19.0001C20.3257 23.9985 21.5965 23.4712 22.5338 22.5338C23.4712 21.5965 23.9985 20.3256 24.0001 19ZM12.7001 2.02404C15.2665 2.25108 17.652 3.44095 19.3771 5.3546C21.1023 7.26824 22.0394 9.76386 22.0001 12.34V19C22.0001 19.7957 21.684 20.5588 21.1214 21.1214C20.5588 21.684 19.7957 22 19.0001 22H13.0831C7.04905 22 2.40005 18.1 2.02505 12.716C1.92661 11.3446 2.11203 9.96764 2.56974 8.67111C3.02745 7.37458 3.74761 6.18637 4.68523 5.18071C5.62285 4.17506 6.75778 3.37356 8.01912 2.82629C9.28046 2.27902 10.6411 1.99775 12.0161 2.00004C12.2431 2.00004 12.4721 2.00904 12.7001 2.02404ZM14.0001 18V12C14.0001 11.4696 13.7893 10.9609 13.4143 10.5858C13.0392 10.2108 12.5305 10 12.0001 10H11.0001C10.7348 10 10.4805 10.1054 10.2929 10.2929C10.1054 10.4805 10.0001 10.7348 10.0001 11C10.0001 11.2653 10.1054 11.5196 10.2929 11.7072C10.4805 11.8947 10.7348 12 11.0001 12H12.0001V18C12.0001 18.2653 12.1054 18.5196 12.2929 18.7072C12.4805 18.8947 12.7348 19 13.0001 19C13.2653 19 13.5196 18.8947 13.7072 18.7072C13.8947 18.5196 14.0001 18.2653 14.0001 18Z" fill="#6180FF"/>
</svg>
