<svg width="160" height="48" viewBox="0 0 160 48" fill="none" xmlns="http://www.w3.org/2000/svg">
<g clip-path="url(#clip0_1780_24175)">
<g clip-path="url(#clip1_1780_24175)">
<path d="M6.82745 24.0174C6.82745 23.8942 6.84285 23.771 6.84285 23.6478L4.05531 20.8604C3.8859 21.8768 3.7627 22.924 3.7627 24.002C3.7627 25.08 3.8705 26.1272 4.05531 27.1437L6.84285 24.3562C6.84285 24.2484 6.82745 24.1406 6.82745 24.0174Z" fill="#DBAF4F"/>
<path d="M33.5326 34.7051C30.7143 37.6619 26.7409 39.5254 22.3363 39.5254C17.9316 39.5254 13.9582 37.6773 11.1399 34.7051H7.19727C10.5546 39.4484 16.0835 42.5592 22.3363 42.5592C28.589 42.5592 34.1179 39.4484 37.4752 34.7051H33.5326Z" fill="#DBAF4F"/>
<path d="M11.155 13.3149C11.3091 13.1455 11.4785 12.9915 11.6325 12.8375V8.86426C9.90759 10.0809 8.3983 11.5901 7.18164 13.3149H11.155Z" fill="#DBAF4F"/>
<path d="M21.9973 8.54076C22.1051 8.54076 22.2283 8.52536 22.3361 8.52536C30.8835 8.52536 37.8293 15.4709 37.8293 24.018C37.8293 24.1258 37.8139 24.249 37.8139 24.3568L40.6014 27.1443C40.7709 26.1278 40.8941 25.0806 40.8941 24.0026C40.8941 13.7614 32.593 5.44531 22.3361 5.44531C21.258 5.44531 20.2108 5.55311 19.1943 5.73792L21.9973 8.54076Z" fill="#DBAF4F"/>
<path d="M13.1571 1.87207V10.527L29.713 27.0669H6.30379L0.205078 33.1808H44.467L13.1571 1.87207Z" fill="#DBAF4F"/>
<path d="M22.336 24.0174L13.1571 14.8389H0.205078L9.36855 24.0174H22.336Z" fill="#DBAF4F"/>
</g>
<g clip-path="url(#clip2_1780_24175)">
<path d="M66.7068 24.3629C67.1751 23.52 67.4092 22.5366 67.4092 21.4127V17.6195C67.4092 16.4956 67.1751 15.5122 66.7068 14.6693C66.2385 13.8263 65.5828 13.1707 64.7399 12.7024C63.8969 12.2342 62.9135 12 61.8129 12H57.9962C56.8957 12 55.9122 12.2342 55.0693 12.7024C54.2263 13.1707 53.5707 13.8263 53.1024 14.6693C52.6341 15.5122 52.3999 16.4956 52.3999 17.6195V21.4127C52.3999 22.5366 52.6341 23.52 53.1024 24.3629C53.5707 25.2059 54.2263 25.8615 55.0693 26.3298C55.9122 26.7981 56.8957 27.0322 57.9962 27.0322H61.8129C62.8432 27.0322 63.7564 26.7981 64.5525 26.4L66.0511 27.8985L67.9712 25.9785L66.5429 24.5502C66.5897 24.5034 66.6599 24.4332 66.7068 24.3629ZM61.7895 24.48H57.9728C57.1532 24.48 56.4976 24.1756 56.0059 23.5902C55.5142 23.0049 55.2566 22.2322 55.2566 21.2722V17.7366C55.2566 16.7766 55.5142 16.0039 56.0059 15.4185C56.4976 14.8332 57.1532 14.5288 57.9728 14.5288H61.7895C62.6091 14.5288 63.2647 14.8332 63.7564 15.4185C64.2481 16.0039 64.5057 16.7766 64.5057 17.7366V21.2722C64.5057 21.6702 64.4355 22.0449 64.3418 22.3727L62.4686 20.4995L60.5485 22.4195L62.4451 24.3161C62.2578 24.3863 62.0471 24.48 61.7895 24.48Z" fill="#E4E5E6"/>
<path d="M74.6444 18.486L70.9213 12.1406H67.7603L73.1926 21.1553V26.8684H76.0962V21.1553L81.552 12.1406H78.3909L74.6444 18.486Z" fill="#E4E5E6"/>
<path d="M122.201 21.5533C121.967 21.1787 121.639 20.8275 121.171 20.5465V20.4997C121.967 20.2187 122.553 19.8206 122.974 19.2821C123.396 18.7436 123.606 18.1114 123.606 17.3855V15.9104C123.606 14.7865 123.208 13.8967 122.436 13.1943C121.663 12.5153 120.633 12.1641 119.345 12.1641H111.524V24.3631H108.738H100.402V20.6167H108.105V18.088H100.402V14.6928H108.738V12.1641H97.5215V24.9016C97.5215 25.487 97.7088 25.9553 98.0835 26.3299C98.4581 26.7045 98.9498 26.8684 99.5586 26.8684H108.738H111.524H114.427V21.6002H117.987C118.455 21.6002 118.853 21.7406 119.181 22.045C119.509 22.3494 119.766 22.7943 119.93 23.3797L121.054 26.8684H124.051L122.88 23.1221C122.67 22.4431 122.436 21.928 122.201 21.5533ZM120.703 17.3855C120.703 17.9006 120.539 18.2987 120.188 18.6265C119.836 18.9543 119.392 19.0948 118.806 19.0948H114.427V14.6694H119.298C119.719 14.6694 120.047 14.7865 120.305 15.0441C120.562 15.2782 120.679 15.606 120.679 16.0275V17.3855H120.703Z" fill="#E4E5E6"/>
<path d="M143.065 21.5533C142.831 21.1787 142.503 20.8275 142.034 20.5465V20.4997C142.831 20.2187 143.416 19.8206 143.837 19.2821C144.259 18.7436 144.47 18.1114 144.47 17.3855V15.9104C144.47 14.7865 144.072 13.8967 143.299 13.1943C142.526 12.5153 141.496 12.1641 140.208 12.1641H132.387V26.8919H135.291V21.6236H138.85C139.318 21.6236 139.716 21.7641 140.044 22.0685C140.372 22.3728 140.629 22.8177 140.793 23.4031L141.917 26.8919H144.914L143.744 23.1455C143.51 22.4431 143.299 21.928 143.065 21.5533ZM141.566 17.3855C141.566 17.9006 141.402 18.2987 141.051 18.6265C140.7 18.9543 140.255 19.0948 139.669 19.0948H135.291V14.6694H140.161C140.583 14.6694 140.91 14.7865 141.168 15.0441C141.426 15.2782 141.543 15.606 141.543 16.0275V17.3855H141.566Z" fill="#E4E5E6"/>
<path d="M157.161 12.1406V21.647C157.161 22.4899 156.95 23.1689 156.505 23.684C156.06 24.1992 155.498 24.4567 154.796 24.4567H152.571C151.892 24.4567 151.33 24.1992 150.909 23.684C150.487 23.1689 150.277 22.4899 150.277 21.647V12.1406H147.373V21.7172C147.373 22.7709 147.584 23.684 148.029 24.5035C148.474 25.2996 149.082 25.9319 149.855 26.3533C150.651 26.7982 151.541 27.0089 152.595 27.0089H154.819C155.849 27.0089 156.763 26.7982 157.582 26.3533C158.378 25.9084 158.987 25.2996 159.432 24.5035C159.877 23.7075 160.088 22.7709 160.088 21.7172V12.1406H157.161Z" fill="#E4E5E6"/>
<path d="M129.484 24.3398H126.955V26.8686H129.484V24.3398Z" fill="#E4E5E6"/>
<path d="M93.2832 19.1182C93.7047 18.8373 94.0325 18.486 94.2666 18.0646C94.5008 17.6431 94.6179 17.1982 94.6179 16.7299V15.6763C94.6179 14.5992 94.2198 13.7563 93.4003 13.1241C92.5807 12.4919 91.527 12.1875 90.1923 12.1875H82.8867V24.8782V24.9251V26.8685H90.9182C92.3232 26.8685 93.4471 26.5173 94.2901 25.8382C95.133 25.1592 95.5311 24.246 95.5311 23.0987V22.0451C95.5311 21.3894 95.3203 20.7807 94.8989 20.2656C94.5008 19.727 93.9622 19.3524 93.2832 19.1182ZM85.7668 14.7163H90.0753C90.567 14.7163 90.9651 14.8334 91.246 15.0675C91.5504 15.3016 91.6909 15.606 91.6909 16.0041V16.7299C91.6909 17.1982 91.5504 17.5963 91.2695 17.8773C90.9885 18.1582 90.6138 18.2987 90.1689 18.2987H85.7434V14.7163H85.7668ZM92.6276 22.9348C92.6276 23.3797 92.4636 23.7309 92.1124 23.9651C91.7846 24.1992 91.2929 24.3397 90.6841 24.3397H85.7668V20.687H91.0119C91.5036 20.687 91.9017 20.8041 92.1827 21.0616C92.4871 21.3192 92.6276 21.647 92.6276 22.0451V22.9348Z" fill="#E4E5E6"/>
<path d="M55.4439 35.953L54.1092 34.2438L53.7112 34.6652V35.953H52.915V31.8789H53.7112V33.635L55.3268 31.8789H56.3103L54.6478 33.6584L56.4274 35.953H55.4439Z" fill="#9E9FA3"/>
<path d="M68.0648 35.8126C67.9711 35.7189 67.9009 35.5784 67.9009 35.4145V31.9023H71.0151V32.6048H68.7204V33.5414H70.8512V34.2438H68.7204V35.2741H71.0151V35.9765H68.4628C68.2989 35.9531 68.1819 35.9062 68.0648 35.8126Z" fill="#9E9FA3"/>
<path d="M72.7012 31.9023H74.8554C75.0896 31.9023 75.3003 31.9492 75.4876 32.0428C75.6749 32.1365 75.8154 32.2536 75.9091 32.4409C76.0028 32.6048 76.0496 32.7921 76.0496 33.0263V33.5648C76.0496 33.7989 76.0028 33.9862 75.8857 34.1501C75.792 34.314 75.6281 34.4546 75.4408 34.5482C75.2535 34.6419 75.0427 34.6887 74.7851 34.6887H73.4973V35.9765H72.7012V31.9023ZM74.7851 33.9862C74.9256 33.9862 75.0427 33.9394 75.113 33.8458C75.2066 33.7521 75.23 33.635 75.23 33.4945V33.0263C75.23 32.8858 75.1832 32.7921 75.113 32.6985C75.0427 32.6282 74.9256 32.5814 74.8086 32.5814H73.4739V33.9628H74.7851V33.9862Z" fill="#9E9FA3"/>
<path d="M60.4779 31.9023V35.2506H59.2135C59.0262 35.2506 58.8622 35.1804 58.7452 35.0399C58.6281 34.8994 58.5578 34.7121 58.5578 34.4779V31.9023H57.7617V34.5014C57.7617 34.7823 57.832 35.0399 57.949 35.2741C58.0661 35.4848 58.23 35.6721 58.4642 35.7892C58.6749 35.9063 58.9325 35.9765 59.2135 35.9765H60.4779H61.274V31.9023H60.4779Z" fill="#9E9FA3"/>
<path d="M104.757 31.9023V35.2506H103.492C103.305 35.2506 103.141 35.1804 103.024 35.0399C102.907 34.8994 102.837 34.7121 102.837 34.4779V31.9023H102.041V34.5014C102.041 34.7823 102.111 35.0399 102.228 35.2741C102.345 35.4848 102.509 35.6721 102.743 35.7892C102.954 35.9063 103.211 35.9765 103.492 35.9765H104.757H105.553V31.9023H104.757Z" fill="#9E9FA3"/>
<path d="M65.2547 33.5882C64.2712 33.5882 63.7561 33.5882 63.7561 33.5882V32.6048H66.1913V31.9023H63.7561H63.5219C63.358 31.9023 63.2175 31.9492 63.1239 32.0428C63.0302 32.1365 62.96 32.277 62.96 32.4409V35.4145V35.9531H63.5219H63.7561H65.1844C65.5825 35.9531 65.8869 35.8594 66.1211 35.6721C66.3552 35.4848 66.4723 35.2272 66.4723 34.9228V34.6185C66.4489 34.2438 66.1679 33.5882 65.2547 33.5882ZM65.6293 34.876C65.6293 34.9931 65.5825 35.0867 65.4888 35.157C65.3952 35.2272 65.2547 35.2506 65.0908 35.2506H63.7327V34.2204H65.1844C65.3249 34.2204 65.4186 34.2438 65.5122 34.314C65.5825 34.3843 65.6293 34.478 65.6293 34.595V34.876Z" fill="#9E9FA3"/>
<path d="M78.0399 35.8125C77.8057 35.6954 77.6418 35.5081 77.5247 35.274C77.4076 35.0398 77.3374 34.7589 77.3374 34.4545V33.3774C77.3374 33.073 77.4076 32.792 77.5247 32.5579C77.6418 32.3237 77.8291 32.1364 78.0633 32.0194C78.2974 31.9023 78.555 31.832 78.8594 31.832H79.4682C79.7492 31.832 80.0068 31.9023 80.2409 32.0194C80.4517 32.1364 80.639 32.3237 80.7561 32.5345C80.8731 32.7452 80.9434 33.0262 80.9434 33.3071H80.1473C80.1473 33.073 80.077 32.8857 79.9599 32.7452C79.8429 32.6047 79.679 32.5345 79.4682 32.5345H78.8594C78.6487 32.5345 78.4613 32.6047 78.3443 32.7686C78.2038 32.9325 78.1569 33.1432 78.1569 33.4008V34.4076C78.1569 34.6652 78.2272 34.8759 78.3443 35.0398C78.4613 35.2037 78.6487 35.274 78.8594 35.274H79.4916C79.7024 35.274 79.8663 35.2037 79.9834 35.0398C80.1238 34.8759 80.1707 34.6652 80.1707 34.4076H80.9668C80.9668 34.712 80.8966 34.993 80.7795 35.2271C80.6624 35.4613 80.4751 35.6486 80.2643 35.7891C80.0536 35.9296 79.7726 35.9764 79.4916 35.9764H78.8594C78.5316 35.9998 78.274 35.953 78.0399 35.8125Z" fill="#9E9FA3"/>
<path d="M88.3426 35.8125C88.1084 35.672 87.9211 35.5081 87.804 35.274C87.6635 35.0399 87.6167 34.7589 87.6167 34.4545V33.4008C87.6167 33.0964 87.6869 32.8155 87.804 32.5813C87.9445 32.3472 88.1084 32.1599 88.3426 32.0428C88.5767 31.9023 88.8577 31.8555 89.1621 31.8555H89.7709C90.0753 31.8555 90.3563 31.9257 90.5905 32.0428C90.8246 32.1833 91.0119 32.3472 91.129 32.5813C91.2695 32.8155 91.3163 33.0964 91.3163 33.4008V34.4545C91.3163 34.7589 91.2461 35.0399 91.129 35.274C90.9885 35.5081 90.8246 35.6955 90.5905 35.8125C90.3563 35.9296 90.0753 35.9999 89.7709 35.9999H89.1621C88.8577 35.9999 88.6001 35.953 88.3426 35.8125ZM89.7709 35.2974C90.0051 35.2974 90.169 35.2272 90.3095 35.0633C90.45 34.8994 90.5202 34.6886 90.5202 34.4311V33.4477C90.5202 33.1901 90.45 32.9794 90.3095 32.8155C90.169 32.6516 89.9817 32.5813 89.7709 32.5813H89.1621C88.928 32.5813 88.7641 32.6516 88.6236 32.8155C88.4831 32.9794 88.4128 33.1901 88.4128 33.4477V34.4311C88.4128 34.6886 88.4831 34.8994 88.6236 35.0633C88.7641 35.2272 88.9514 35.2974 89.1621 35.2974H89.7709Z" fill="#9E9FA3"/>
<path d="M92.9087 31.9023H95.0629C95.2971 31.9023 95.5078 31.9492 95.6951 32.0428C95.8825 32.1365 96.023 32.2536 96.1166 32.4409C96.2103 32.6282 96.2571 32.7921 96.2571 33.0263V33.5648C96.2571 33.7989 96.2103 33.9862 96.0932 34.1501C95.9995 34.314 95.8356 34.4546 95.6483 34.5482C95.461 34.6419 95.2502 34.6887 94.9927 34.6887H93.7048V35.9765H92.9087V31.9023ZM94.9927 33.9862C95.1332 33.9862 95.2502 33.9394 95.3205 33.8458C95.4141 33.7521 95.4376 33.635 95.4376 33.4945V33.0263C95.4376 32.8858 95.3907 32.7921 95.3205 32.6985C95.2502 32.6282 95.1332 32.5814 95.0161 32.5814H93.6814V33.9628H94.9927V33.9862Z" fill="#9E9FA3"/>
<path d="M98.575 32.5813H97.2871V31.8789H100.682V32.5813H99.3945V35.953H98.5984V32.5813H98.575Z" fill="#9E9FA3"/>
<path d="M107.356 35.8126C107.263 35.7189 107.192 35.5784 107.192 35.4145V31.9023H109.206C109.581 31.9023 109.862 31.996 110.096 32.1599C110.33 32.3238 110.424 32.558 110.424 32.8624V33.1433C110.424 33.2838 110.4 33.4009 110.33 33.518C110.26 33.635 110.166 33.7287 110.049 33.7989C110.236 33.8692 110.377 33.9628 110.494 34.1267C110.611 34.2672 110.658 34.4311 110.658 34.6185V34.9228C110.658 35.2506 110.541 35.4848 110.307 35.6721C110.072 35.8594 109.768 35.9531 109.37 35.9531H107.708C107.614 35.9531 107.473 35.9062 107.356 35.8126ZM109.23 33.5882C109.347 33.5882 109.464 33.5414 109.534 33.4711C109.604 33.4009 109.651 33.2838 109.651 33.1433V32.956C109.651 32.8389 109.604 32.7687 109.534 32.6985C109.464 32.6282 109.347 32.6048 109.206 32.6048H108.012V33.5882H109.23ZM109.37 35.2741C109.534 35.2741 109.674 35.2506 109.768 35.1804C109.862 35.1102 109.909 35.0165 109.909 34.8994V34.6419C109.909 34.5248 109.862 34.4311 109.791 34.3609C109.721 34.2906 109.604 34.2672 109.464 34.2672H108.012V35.2975H109.37V35.2741Z" fill="#9E9FA3"/>
<path d="M112.18 31.9023H112.976V33.5882H114.872V31.9023H115.669V35.9765H114.872V34.2906H112.976V35.9765H112.18V31.9023Z" fill="#9E9FA3"/>
<path d="M117.354 31.9023H118.151V33.1902H119.438C119.696 33.1902 119.907 33.237 120.094 33.3306C120.281 33.4243 120.422 33.5648 120.539 33.7287C120.656 33.8926 120.703 34.1033 120.703 34.314V34.8526C120.703 35.0633 120.656 35.2506 120.562 35.438C120.445 35.6019 120.305 35.7423 120.141 35.836C119.977 35.9297 119.743 35.9765 119.509 35.9765H117.354V31.9023ZM118.151 33.8692V35.2506H119.485C119.602 35.2506 119.719 35.2038 119.79 35.1336C119.86 35.0633 119.907 34.9463 119.907 34.8058V34.3375C119.907 34.197 119.86 34.0799 119.79 33.9862C119.719 33.8926 119.602 33.8458 119.462 33.8458H118.151V33.8692Z" fill="#9E9FA3"/>
<path d="M121.522 31.9023H122.319V35.9765H121.522V31.9023Z" fill="#9E9FA3"/>
<path d="M82.5591 31.8789V31.9023V32.5813V35.953H83.3552V32.5813H85.2753V35.953H86.0714V32.5813V31.9023V31.8789H82.5591Z" fill="#9E9FA3"/>
<path d="M126.744 31.9023V35.2506H125.48C125.292 35.2506 125.128 35.1804 125.011 35.0399C124.894 34.8994 124.824 34.7121 124.824 34.4779V31.9023H124.028V34.5014C124.028 34.7823 124.098 35.0399 124.215 35.2741C124.332 35.4848 124.496 35.6721 124.73 35.7892C124.941 35.9063 125.199 35.9765 125.48 35.9765H126.744H127.54V31.9023H126.744Z" fill="#9E9FA3"/>
<path d="M126.323 31.1768H125.222V31.8792H126.323V31.1768Z" fill="#9E9FA3"/>
<path d="M154.257 31.9023V35.2506H152.993C152.805 35.2506 152.642 35.1804 152.524 35.0399C152.407 34.8994 152.337 34.7121 152.337 34.4779V31.9023H151.541V34.5014C151.541 34.7823 151.611 35.0399 151.728 35.2741C151.845 35.4848 152.009 35.6721 152.243 35.7892C152.454 35.9063 152.712 35.9765 152.993 35.9765H154.257H155.053V31.9023H154.257Z" fill="#9E9FA3"/>
<path d="M132.832 32.5813H131.544V31.8789H134.939V32.5813H133.651V35.953H132.855V32.5813H132.832Z" fill="#9E9FA3"/>
<path d="M141.449 31.9023H143.603C143.837 31.9023 144.048 31.9492 144.235 32.0428C144.423 32.1365 144.563 32.2536 144.657 32.4409C144.75 32.6282 144.797 32.7921 144.797 33.0263V33.5648C144.797 33.7989 144.75 33.9862 144.633 34.1501C144.54 34.314 144.376 34.4546 144.188 34.5482C144.001 34.6419 143.79 34.6887 143.533 34.6887H142.245V35.9765H141.449V31.9023ZM143.533 33.9862C143.673 33.9862 143.79 33.9394 143.861 33.8458C143.954 33.7521 143.978 33.635 143.978 33.4945V33.0263C143.978 32.8858 143.931 32.7921 143.861 32.6985C143.79 32.6282 143.673 32.5814 143.556 32.5814H142.221V33.9628H143.533V33.9862Z" fill="#9E9FA3"/>
<path d="M146.39 31.9023H147.186V33.5882H149.082V31.9023H149.879V35.9765H149.082V34.2906H147.186V35.9765H146.39V31.9023Z" fill="#9E9FA3"/>
<path d="M156.716 31.9023H158.87C159.104 31.9023 159.315 31.9492 159.502 32.0428C159.69 32.1365 159.83 32.2536 159.924 32.4409C160.017 32.6048 160.064 32.7921 160.064 33.0263V33.5648C160.064 33.7989 160.017 33.9862 159.9 34.1501C159.807 34.314 159.643 34.4546 159.455 34.5482C159.268 34.6419 159.057 34.6887 158.8 34.6887H157.512V35.9765H156.716V31.9023ZM158.8 33.9862C158.94 33.9862 159.057 33.9394 159.128 33.8458C159.221 33.7521 159.245 33.635 159.245 33.4945V33.0263C159.245 32.8858 159.198 32.7921 159.128 32.6985C159.057 32.6282 158.94 32.5814 158.823 32.5814H157.489V33.9628H158.8V33.9862Z" fill="#9E9FA3"/>
<path d="M140.044 31.9023H139.177L138.124 33.635L137.093 31.9023H136.227L137.702 34.314L136.695 35.9531H137.585L138.569 34.314L140.044 31.9023Z" fill="#9E9FA3"/>
</g>
</g>
<defs>
<clipPath id="clip0_1780_24175">
<rect width="160" height="48" fill="white"/>
</clipPath>
<clipPath id="clip1_1780_24175">
<rect width="48" height="48" fill="white" transform="translate(-1.6001)"/>
</clipPath>
<clipPath id="clip2_1780_24175">
<rect width="108" height="24" fill="white" transform="translate(52.3999 12)"/>
</clipPath>
</defs>
</svg>
