<svg width="17" height="16" viewBox="0 0 17 16" fill="none" xmlns="http://www.w3.org/2000/svg">
<g clip-path="url(#clip0_3070_44651)">
<path d="M8.15067 10C7.97386 10 7.80429 10.0702 7.67926 10.1953C7.55424 10.3203 7.484 10.4899 7.484 10.6667V12.6667C7.484 13.1971 7.27329 13.7058 6.89821 14.0809C6.52314 14.456 6.01443 14.6667 5.484 14.6667H3.83333C3.3029 14.6667 2.79419 14.456 2.41912 14.0809C2.04405 13.7058 1.83333 13.1971 1.83333 12.6667V3.33333C1.83333 2.8029 2.04405 2.29419 2.41912 1.91912C2.79419 1.54405 3.3029 1.33333 3.83333 1.33333H5.484C6.01443 1.33333 6.52314 1.54405 6.89821 1.91912C7.27329 2.29419 7.484 2.8029 7.484 3.33333V5.33333C7.484 5.51014 7.55424 5.67971 7.67926 5.80474C7.80429 5.92976 7.97386 6 8.15067 6C8.32748 6 8.49705 5.92976 8.62207 5.80474C8.7471 5.67971 8.81733 5.51014 8.81733 5.33333V3.33333C8.81627 2.4496 8.46475 1.60237 7.83985 0.97748C7.21496 0.352588 6.36773 0.00105857 5.484 0H3.83333C2.9496 0.00105857 2.10237 0.352588 1.47748 0.97748C0.852588 1.60237 0.501059 2.4496 0.5 3.33333L0.5 12.6667C0.501059 13.5504 0.852588 14.3976 1.47748 15.0225C2.10237 15.6474 2.9496 15.9989 3.83333 16H5.484C6.36773 15.9989 7.21496 15.6474 7.83985 15.0225C8.46475 14.3976 8.81627 13.5504 8.81733 12.6667V10.6667C8.81733 10.4899 8.7471 10.3203 8.62207 10.1953C8.49705 10.0702 8.32748 10 8.15067 10Z" fill="white"/>
<path d="M15.7448 6.58605L12.6875 3.52872C12.626 3.46505 12.5524 3.41426 12.4711 3.37932C12.3898 3.34438 12.3023 3.32599 12.2138 3.32522C12.1252 3.32445 12.0375 3.34132 11.9555 3.37484C11.8736 3.40836 11.7992 3.45786 11.7366 3.52046C11.674 3.58305 11.6245 3.65749 11.5909 3.73942C11.5574 3.82135 11.5406 3.90914 11.5413 3.99766C11.5421 4.08617 11.5605 4.17365 11.5954 4.25499C11.6304 4.33633 11.6812 4.40989 11.7448 4.47139L14.5862 7.31339L4.50016 7.33339C4.32335 7.33339 4.15378 7.40363 4.02876 7.52865C3.90373 7.65367 3.8335 7.82324 3.8335 8.00005C3.8335 8.17687 3.90373 8.34643 4.02876 8.47146C4.15378 8.59648 4.32335 8.66672 4.50016 8.66672L14.6255 8.64605L11.7435 11.5287C11.6798 11.5902 11.629 11.6638 11.5941 11.7451C11.5592 11.8265 11.5408 11.9139 11.54 12.0025C11.5392 12.091 11.5561 12.1788 11.5896 12.2607C11.6231 12.3426 11.6726 12.4171 11.7352 12.4797C11.7978 12.5422 11.8723 12.5917 11.9542 12.6253C12.0361 12.6588 12.1239 12.6757 12.2124 12.6749C12.301 12.6741 12.3884 12.6557 12.4698 12.6208C12.5511 12.5858 12.6247 12.5351 12.6862 12.4714L15.7435 9.41405C16.1186 9.03918 16.3295 8.53066 16.3297 8.00033C16.33 7.47 16.1196 6.96129 15.7448 6.58605Z" fill="white"/>
</g>
<defs>
<clipPath id="clip0_3070_44651">
<rect width="16" height="16" fill="white" transform="translate(0.5)"/>
</clipPath>
</defs>
</svg>
