<svg width="17" height="13" viewBox="0 0 17 13" fill="none" xmlns="http://www.w3.org/2000/svg">
<g id="Group 382">
<path id="email 1 (Traced)" fill-rule="evenodd" clip-rule="evenodd" d="M1.59962 0.448719C1.35079 0.515613 1.13414 0.642777 0.936023 0.838241C0.387 1.37986 0.352007 2.2526 0.856319 2.82718C1.00151 2.99256 7.817 7.52869 8.03358 7.60405C8.2886 7.69281 8.76617 7.68422 9.01578 7.58643C9.13257 7.54069 10.4805 6.66032 12.6245 5.22952C15.705 3.17371 16.0613 2.92754 16.1915 2.76432C16.5505 2.31453 16.5993 1.7157 16.3216 1.16774C16.2228 0.972778 15.9405 0.691268 15.732 0.57982C15.3721 0.387387 15.8459 0.399072 8.48694 0.401322C2.71863 0.403071 1.74434 0.409789 1.59962 0.448719ZM0.503166 7.4422C0.503572 11.432 0.496792 11.2663 0.673572 11.6142C0.779146 11.8221 1.05688 12.1022 1.27062 12.2165C1.63036 12.4088 1.15929 12.397 8.50131 12.397C15.8433 12.397 15.3723 12.4088 15.732 12.2165C15.94 12.1053 16.2228 11.8236 16.3209 11.6299C16.5093 11.2578 16.4998 11.4787 16.4998 7.44433V3.75276L13.0697 6.03915C9.46004 8.44524 9.42876 8.46433 8.95641 8.55116C8.7188 8.59484 8.28382 8.59484 8.04621 8.55116C7.57386 8.46433 7.54258 8.44524 3.93291 6.03915L0.502791 3.75276L0.503166 7.4422Z" fill="currentColor"/>
</g>
</svg>
