<svg width="17" height="16" viewBox="0 0 17 16" fill="none" xmlns="http://www.w3.org/2000/svg">
<g clip-path="url(#clip0_1780_24248)">
<path d="M14.5 0H5.83333C4.73067 0 3.83333 0.897333 3.83333 2V4H0.5V13.6667C0.5 14.9533 1.54667 16 2.83333 16H14.1667C15.4533 16 16.5 14.9533 16.5 13.6667V2C16.5 0.897333 15.6027 0 14.5 0ZM3.83333 13.6667C3.83333 14.218 3.38467 14.6667 2.83333 14.6667C2.282 14.6667 1.83333 14.218 1.83333 13.6667V5.33333H3.83333V13.6667ZM15.1667 13.6667C15.1667 14.218 14.718 14.6667 14.1667 14.6667H4.94133C5.08533 14.3633 5.16667 14.0247 5.16667 13.6667V2C5.16667 1.63267 5.466 1.33333 5.83333 1.33333H14.5C14.8673 1.33333 15.1667 1.63267 15.1667 2V13.6667ZM10.5 4H13.8333V5.33333H10.5V4ZM6.5 6.66667H13.8333V8H6.5V6.66667ZM6.5 9.33333H13.8333V10.6667H6.5V9.33333ZM6.5 12H13.8333V13.3333H6.5V12ZM9.16667 5.33333H6.5V2.66667H9.16667V5.33333Z" fill="#9E9FA3"/>
</g>
<defs>
<clipPath id="clip0_1780_24248">
<rect width="16" height="16" fill="white" transform="translate(0.5)"/>
</clipPath>
</defs>
</svg>
