<svg width="16" height="16" viewBox="0 0 16 16" fill="none" xmlns="http://www.w3.org/2000/svg">
<g id="search" clip-path="url(#clip0_2489_39264)">
<path id="Vector" d="M15.8048 14.8638L11.8254 10.8845C12.9098 9.5582 13.443 7.86587 13.3147 6.15752C13.1863 4.44916 12.4062 2.85549 11.1358 1.70615C9.8654 0.556815 8.20183 -0.0602641 6.48919 -0.0174429C4.77656 0.0253784 3.1459 0.724823 1.93451 1.93622C0.723114 3.14761 0.0236694 4.77827 -0.0191518 6.4909C-0.0619731 8.20354 0.555106 9.86711 1.70445 11.1375C2.85379 12.408 4.44745 13.188 6.15581 13.3164C7.86416 13.4447 9.5565 12.9116 10.8828 11.8271L14.8621 15.8065C14.9878 15.9279 15.1562 15.9951 15.331 15.9936C15.5058 15.9921 15.673 15.922 15.7966 15.7984C15.9203 15.6747 15.9904 15.5075 15.9919 15.3327C15.9934 15.1579 15.9262 14.9895 15.8048 14.8638ZM6.66677 12.0018C5.61193 12.0018 4.58079 11.689 3.70372 11.103C2.82666 10.5169 2.14308 9.68399 1.73941 8.70945C1.33574 7.73491 1.23012 6.66256 1.43591 5.62799C1.6417 4.59343 2.14965 3.64312 2.89553 2.89724C3.64141 2.15136 4.59172 1.64341 5.62628 1.43762C6.66085 1.23183 7.7332 1.33745 8.70774 1.74112C9.68228 2.14478 10.5152 2.82837 11.1013 3.70543C11.6873 4.5825 12.0001 5.61364 12.0001 6.66847C11.9985 8.08247 11.4361 9.43811 10.4362 10.438C9.4364 11.4378 8.08077 12.0002 6.66677 12.0018Z" fill="currentColor"/>
</g>
<defs>
<clipPath id="clip0_2489_39264">
<rect width="16" height="16" fill="white"/>
</clipPath>
</defs>
</svg>
