<svg width="17" height="16" viewBox="0 0 17 16" fill="none" xmlns="http://www.w3.org/2000/svg">
<g clip-path="url(#clip0_1780_24232)">
<path d="M6.51333 11.5667C6.38667 11.5667 6.25333 11.5267 6.14667 11.4467C5.94 11.2933 5.85333 11.02 5.93333 10.7733L6.50667 8.93333L5.05333 7.75333C4.86 7.58667 4.78667 7.32 4.87333 7.08C4.96 6.84 5.19333 6.68 5.44667 6.68H7.28L7.92667 4.94C8.01333 4.7 8.24667 4.54 8.5 4.54C8.75333 4.54 8.98667 4.7 9.07333 4.94L9.72 6.68H11.5533C11.8067 6.68 12.04 6.84 12.1267 7.08C12.2133 7.32 12.14 7.59333 11.9467 7.76L10.5 8.94L11.1 10.76C11.18 11.0067 11.1 11.28 10.8933 11.4333C10.6867 11.5933 10.4067 11.6 10.1867 11.46L8.50667 10.3667L6.85333 11.4733C6.75333 11.54 6.63333 11.5733 6.51333 11.5733V11.5667ZM8.5 16C4.08667 16 0.5 12.4133 0.5 8C0.5 3.58667 4.08667 0 8.5 0C12.9133 0 16.5 3.58667 16.5 8C16.5 12.4133 12.9133 16 8.5 16ZM8.5 1.33333C4.82667 1.33333 1.83333 4.32667 1.83333 8C1.83333 11.6733 4.82667 14.6667 8.5 14.6667C12.1733 14.6667 15.1667 11.6733 15.1667 8C15.1667 4.32667 12.1733 1.33333 8.5 1.33333Z" fill="#9E9FA3"/>
</g>
<defs>
<clipPath id="clip0_1780_24232">
<rect width="16" height="16" fill="white" transform="translate(0.5)"/>
</clipPath>
</defs>
</svg>
