<svg width="17" height="16" viewBox="0 0 17 16" fill="none" xmlns="http://www.w3.org/2000/svg">
<g id="telegram">
<path id="Vector" d="M15.2638 2.09686C15.0238 1.89334 14.6469 1.86422 14.2571 2.0207H14.2565C13.8465 2.18518 2.65294 6.98646 2.19726 7.18262C2.11438 7.21142 1.39054 7.4815 1.4651 8.0831C1.53166 8.6255 2.11342 8.85014 2.18446 8.87606L5.03022 9.85046C5.21902 10.4789 5.91502 12.7977 6.06894 13.293C6.16494 13.6018 6.32142 14.0076 6.59566 14.0911C6.8363 14.1839 7.07566 14.0991 7.23054 13.9775L8.97038 12.3637L11.779 14.5541L11.8459 14.5941C12.0366 14.6786 12.2193 14.7209 12.3937 14.7209C12.5285 14.7209 12.6577 14.6956 12.7813 14.645C13.2021 14.4722 13.3704 14.0713 13.388 14.0258L15.4859 3.12118C15.6139 2.53878 15.436 2.24246 15.2638 2.09686ZM7.53998 10.2402L6.57998 12.8002L5.61998 9.60022L12.98 4.16022L7.53998 10.2402Z" fill="currentColor"/>
</g>
</svg>
