<svg width="17" height="16" viewBox="0 0 17 16" fill="none" xmlns="http://www.w3.org/2000/svg">
<g clip-path="url(#clip0_1780_24253)">
<path d="M8.5 8C9.29113 8 10.0645 7.76541 10.7223 7.32588C11.3801 6.88635 11.8928 6.26164 12.1955 5.53074C12.4983 4.79983 12.5775 3.99556 12.4231 3.21964C12.2688 2.44372 11.8878 1.73098 11.3284 1.17157C10.769 0.612165 10.0563 0.231202 9.28036 0.0768607C8.50444 -0.0774802 7.70017 0.00173314 6.96927 0.304484C6.23836 0.607234 5.61365 1.11992 5.17412 1.77772C4.7346 2.43552 4.5 3.20888 4.5 4C4.50106 5.06054 4.92283 6.07734 5.67274 6.82726C6.42266 7.57718 7.43946 7.99894 8.5 8ZM8.5 1.33334C9.02742 1.33334 9.54299 1.48973 9.98152 1.78275C10.4201 2.07577 10.7618 2.49224 10.9637 2.97951C11.1655 3.46678 11.2183 4.00296 11.1154 4.52024C11.0125 5.03753 10.7586 5.51268 10.3856 5.88562C10.0127 6.25856 9.53752 6.51254 9.02024 6.61543C8.50296 6.71832 7.96678 6.66551 7.47951 6.46368C6.99224 6.26185 6.57577 5.92005 6.28275 5.48152C5.98973 5.04299 5.83333 4.52742 5.83333 4C5.83333 3.29276 6.11428 2.61448 6.61438 2.11438C7.11448 1.61429 7.79276 1.33334 8.5 1.33334Z" fill="#9E9FA3"/>
<path d="M8.5 9.33301C6.90924 9.33477 5.38414 9.96748 4.25931 11.0923C3.13447 12.2172 2.50176 13.7423 2.5 15.333C2.5 15.5098 2.57024 15.6794 2.69526 15.8044C2.82029 15.9294 2.98986 15.9997 3.16667 15.9997C3.34348 15.9997 3.51305 15.9294 3.63807 15.8044C3.7631 15.6794 3.83333 15.5098 3.83333 15.333C3.83333 14.0953 4.325 12.9083 5.20017 12.0332C6.07534 11.158 7.26232 10.6663 8.5 10.6663C9.73768 10.6663 10.9247 11.158 11.7998 12.0332C12.675 12.9083 13.1667 14.0953 13.1667 15.333C13.1667 15.5098 13.2369 15.6794 13.3619 15.8044C13.487 15.9294 13.6565 15.9997 13.8333 15.9997C14.0101 15.9997 14.1797 15.9294 14.3047 15.8044C14.4298 15.6794 14.5 15.5098 14.5 15.333C14.4982 13.7423 13.8655 12.2172 12.7407 11.0923C11.6159 9.96748 10.0908 9.33477 8.5 9.33301Z" fill="#9E9FA3"/>
</g>
<defs>
<clipPath id="clip0_1780_24253">
<rect width="16" height="16" fill="white" transform="translate(0.5)"/>
</clipPath>
</defs>
</svg>
