<svg width="16" height="16" viewBox="0 0 16 16" fill="none" xmlns="http://www.w3.org/2000/svg">
<g id="vk">
<path id="vk-social-network-logo 1 (Traced)" fill-rule="evenodd" clip-rule="evenodd" d="M6.46875 3.45431C5.89444 3.51556 5.62078 3.6144 5.42466 3.8315C5.26528 4.00793 5.27491 4.06721 5.46978 4.10903C5.80513 4.18093 6.03009 4.34965 6.12347 4.59918C6.29281 5.05178 6.34897 6.22187 6.23909 7.00856C6.15544 7.60765 6.04856 7.84275 5.84422 7.87725C5.57053 7.9235 5.20266 7.6255 4.8285 7.05443C4.56569 6.65331 3.853 5.28884 3.56084 4.62734C3.32291 4.08868 3.24659 3.98103 3.03522 3.88575C2.90594 3.82746 2.83059 3.82437 1.64459 3.82846C0.954906 3.83084 0.339969 3.84634 0.278031 3.86284C0.0983125 3.91081 0 4.02225 0 4.178C0 4.48665 1.10816 6.72681 1.91503 8.04921C2.52059 9.04171 3.41669 10.2496 3.92084 10.7529C4.62003 11.4508 5.69141 12.1069 6.51725 12.3429C7.031 12.4897 7.38303 12.5244 8.23438 12.5124C8.93531 12.5026 8.95662 12.5004 9.09375 12.4236C9.29741 12.3096 9.344 12.189 9.37722 11.6899C9.41784 11.0794 9.55722 10.7068 9.81997 10.5064C10.0819 10.3067 10.3883 10.4612 10.9219 11.0625C11.0594 11.2175 11.3687 11.5422 11.6094 11.7842C11.9997 12.1767 12.0759 12.2383 12.3158 12.3565C12.7212 12.556 12.7765 12.5609 14.25 12.5279C15.4578 12.5008 15.5565 12.4944 15.6875 12.4345C16.1846 12.2072 16.0864 11.7359 15.3566 10.8461C15.2156 10.6742 14.7483 10.1852 14.3182 9.75937C13.4918 8.94131 13.4062 8.83053 13.4063 8.5784C13.4063 8.30956 13.4869 8.18368 14.6352 6.66006C15.5686 5.42153 16 4.65328 16 4.22943C16 4.10215 15.9847 4.06037 15.9112 3.98684C15.8623 3.938 15.763 3.88203 15.6904 3.8625C15.5299 3.81928 12.6998 3.82034 12.5297 3.86371C12.3523 3.90893 12.2639 4.03596 12.0297 4.58212C11.4058 6.03721 10.5163 7.41734 9.96172 7.79062C9.80481 7.89625 9.66316 7.87125 9.53456 7.71521C9.35112 7.49271 9.3385 7.2854 9.375 5.09609C9.38925 4.24168 9.38553 4.14396 9.33309 3.99356C9.17053 3.52712 8.94372 3.45487 7.59375 3.43946C7.10391 3.4339 6.59766 3.44056 6.46875 3.45431Z" fill="currentColor"/>
</g>
</svg>
