<svg width="16" height="12" viewBox="0 0 16 12" fill="none" xmlns="http://www.w3.org/2000/svg">
<g id="XMLID_184_">
<path id="Vector" d="M15.6653 2.12426C15.4813 1.43159 14.9393 0.885591 14.2507 0.700258C13.0033 0.364258 8 0.364258 8 0.364258C8 0.364258 2.99667 0.364258 1.74867 0.700258C1.06067 0.885591 0.518667 1.43092 0.334667 2.12426C0 3.38026 0 6.00026 0 6.00026C0 6.00026 0 8.62026 0.334667 9.87626C0.518667 10.5689 1.06067 11.1149 1.74933 11.3003C2.99667 11.6363 8 11.6363 8 11.6363C8 11.6363 13.0033 11.6363 14.2513 11.3003C14.9393 11.1149 15.4813 10.5696 15.666 9.87626C16 8.62026 16 6.00026 16 6.00026C16 6.00026 16 3.38026 15.6653 2.12426ZM6.364 8.37959V3.62092L10.5453 6.00026L6.364 8.37959Z" fill="currentColor"/>
</g>
</svg>
